<svg width="112" height="112" viewBox="0 0 112 112" fill="none" xmlns="http://www.w3.org/2000/svg">
<g clip-path="url(#clip0_5312_211008)">
<path d="M98.2224 18.2217H95.9995V20.4446H98.2224V18.2217Z" fill="#231F20"/>
<path d="M95.9993 13.7775H93.7764V16.0004H95.9993V13.7775Z" fill="#231F20"/>
<path d="M91.5554 98.2224H89.3325V100.445H91.5554V98.2224Z" fill="#231F20"/>
<path d="M84.8879 100.445H82.6666H80.4437H78.2208H75.9995H73.7766H71.5552H69.3323H67.111H64.8881H62.6652H60.4439H58.221H55.9997H53.7768H51.5554H49.3326H47.1097H44.8883H42.6654H40.4441H38.2212H35.9999H33.777H31.5541H29.3328H27.1099H24.8886H22.6657H20.4443V102.667H22.6657H24.8886H27.1099H29.3328H31.5541H33.777H35.9999H38.2212H40.4441H42.6654H44.8883H47.1097H49.3326H51.5554H53.7768H55.9997H58.221H60.4439H62.6652H64.8881H67.111H69.3323H71.5552H73.7766H75.9995H78.2208H80.4437H82.6666H84.8879H87.1108H89.3321V100.445H87.1108H84.8879Z" fill="#231F20"/>
<path d="M20.4446 95.9995H18.2217V98.2223V100.445H20.4446V98.2223V95.9995Z" fill="#231F20"/>
<path d="M80.4441 27.1117H78.2212H75.9999H73.777H71.5557H69.3328H67.1115H64.8886H62.6657H60.4444H58.2215H56.0001H53.7772H51.5559H49.333H47.1101H44.8888H42.6659H40.4446H38.2217H36.0004H33.7775H31.5546H29.3332H27.1104H24.889H22.6661H20.4448H18.2219V29.333V31.5559V33.7773V36.0001V38.223V40.4444V42.6673V44.8886V47.1115V49.3328V51.5557V53.7786V55.9999V58.2228V60.4441V62.667V64.8884V67.1113V69.3341V71.5555V73.7784V75.9997V78.2226H15.999V80.4439V82.6668V84.8897H18.2219H20.4448H22.6661H24.889H27.1104H29.3332H31.5546H33.7775H36.0004H38.2217H40.4446H42.6659H44.8888H47.1101H49.333H51.5559H53.7772H56.0001H58.2215H60.4444H62.6657H64.8886H67.1115H69.3328H71.5557H73.777H75.9999H78.2212V82.6668V80.4439H80.4441V78.2226V75.9997V73.7784H82.667V71.5555V69.3341V67.1113V64.8884V62.667V60.4441V58.2228V55.9999V53.7786V51.5557V49.3328V47.1115V44.8886V42.6673V40.4444V38.223V36.0001V33.7773V31.5559V29.333V27.1117H80.4441Z" fill="url(#paint0_linear_5312_211008)"/>
<path d="M89.3326 13.7775H87.1112H84.8884H82.667H80.4441H78.2212H75.9999H73.777H71.5557H69.3328H67.1115H64.8886H62.6657H60.4444H58.2215H56.0001H53.7772H51.5559H49.333H47.1101H44.8888H42.6659H40.4446H38.2217H36.0004H33.7775H31.5546H29.3332H27.1104H24.889H22.6661H20.4448H18.2219H15.999V16.0004V18.2217V20.4446H18.2219H20.4448H22.6661H24.889H27.1104H29.3332H31.5546H33.7775H36.0004H38.2217H40.4446H42.6659H44.8888H47.1101H49.333H51.5559H53.7772H56.0001H58.2215H60.4444H62.6657H64.8886H67.1115H69.3328H71.5557H73.777H75.9999H78.2212H80.4441H82.667H84.8884H87.1112H89.3326H91.5555V18.2217V16.0004V13.7775H89.3326Z" fill="#FFFAA0"/>
<path d="M80.4438 91.5552H78.2209H75.9996H73.7767H71.5553H69.3325H67.1111H64.8882H62.6653H60.444H58.2211H55.9998H53.7769H51.5556H49.3327H47.1098H44.8885H42.6656H40.4442H38.2213H36H33.7771H31.5542H29.3329H27.11H24.8887H22.6658H20.4445H18.2216H15.9987H13.7773V93.7781H15.9987H18.2216H20.4445H22.6658H24.8887H27.11H29.3329H31.5542H33.7771H36H38.2213H40.4442H42.6656H44.8885H47.1098H49.3327H51.5556H53.7769H55.9998H58.2211H60.444H62.6653H64.8882H67.1111H69.3325H71.5553H73.7767H75.9996H78.2209H80.4438H82.6667V91.5552H80.4438Z" fill="#FFFAA0"/>
<path d="M95.9995 20.4446V22.6675V24.8888V27.1117V29.333V31.5559V33.7772V36.0001V38.223V40.4444V42.6672V44.8886V47.1115V49.3328V51.5557V53.7786V55.9999V58.2228V60.4441V62.667V64.8884V67.1112V69.3341V71.5555H98.2224V69.3341V67.1112V64.8884V62.667V60.4441V58.2228V55.9999V53.7786V51.5557V49.3328V47.1115V44.8886V42.6672V40.4444V38.223V36.0001V33.7772V31.5559V29.333V27.1117V24.8888V22.6675V20.4446H95.9995Z" fill="#A7A9AC"/>
<path d="M93.7765 22.6675H91.5552V24.8888H93.7765V22.6675Z" fill="#A7A9AC"/>
<path d="M89.332 82.6668V84.8897V87.111H91.5549V84.8897V82.6668V80.4439H89.332V82.6668Z" fill="#A7A9AC"/>
<path d="M87.1108 89.3339V91.5552H89.3322V89.3339V87.111H87.1108V89.3339Z" fill="#A7A9AC"/>
<path d="M87.1108 24.8888H84.8879H82.6665H80.4436H78.2208H75.9994H73.7765H71.5552H69.3323H67.111H64.8881H62.6652H60.4439H58.221H55.9996H53.7768H51.5554H49.3325H47.1096H44.8883H42.6654H40.4441H38.2212H35.9999H33.777H31.5541H29.3328H27.1099H24.8885H22.6656H20.4443H18.2214H15.9985V27.1117H18.2214H20.4443H22.6656H24.8885H27.1099H29.3328H31.5541H33.777H35.9999H38.2212H40.4441H42.6654H44.8883H47.1096H49.3325H51.5554H53.7768H55.9996H58.221H60.4439H62.6652H64.8881H67.111H69.3323H71.5552H73.7765H75.9994H78.2208H80.4436H82.6665H84.8879H87.1108H89.3321H91.555V24.8888H89.3321H87.1108Z" fill="#A7A9AC"/>
<path d="M87.1111 91.5552H84.8882V93.7781H87.1111V91.5552Z" fill="#A7A9AC"/>
<path d="M87.1111 78.2226V75.9997V73.7784H84.8882V75.9997V78.2226V80.4439H87.1111V78.2226Z" fill="#A7A9AC"/>
<path d="M84.8878 82.6668V80.4439H82.6665V82.6668V84.8897H84.8878V82.6668Z" fill="#A7A9AC"/>
<path d="M80.4437 95.9995H78.2208H75.9994H73.7766H71.5552H69.3323H67.111H64.8881H62.6652H60.4439H58.221H55.9997H53.7768H51.5554H49.3326H47.1097H44.8883H42.6654H40.4441H38.2212H35.9999H33.777H31.5541H29.3328H27.1099H24.8886H22.6657H20.4443V98.2224H22.6657H24.8886H27.1099H29.3328H31.5541H33.777H35.9999H38.2212H40.4441H42.6654H44.8883H47.1097H49.3326H51.5554H53.7768H55.9997H58.221H60.4439H62.6652H64.8881H67.111H69.3323H71.5552H73.7766H75.9994H78.2208H80.4437H82.6666H84.8879V95.9995H82.6666H80.4437Z" fill="#A7A9AC"/>
<path d="M82.6667 87.111V84.8897H80.4438V87.111V89.3339H82.6667V87.111Z" fill="#A7A9AC"/>
<path d="M22.6658 91.5553H24.8887H27.11H29.3329H31.5542H33.7771H36H38.2213H40.4442H42.6656H44.8885H47.1098H49.3327H51.5556H53.7769H55.9998H58.2211H60.444H62.6653H64.8882H67.1111H69.3325H71.5553H73.7767H75.9996H78.2209H80.4438V89.3339H78.2209H75.9996H73.7767H71.5553H69.3325H67.1111H64.8882H62.6653H60.444H58.2211H55.9998H53.7769H51.5556H49.3327H47.1098H44.8885H42.6656H40.4442H38.2213H36H33.7771H31.5542H29.3329H27.11H24.8887H22.6658H20.4445H18.2216H15.9987H13.7773V91.5553H15.9987H18.2216H20.4445H22.6658Z" fill="#A7A9AC"/>
<path d="M91.5553 24.8888V27.1117V29.333V31.5559V33.7772V36.0001V38.223V40.4444V42.6672V44.8886V47.1115V49.3328V51.5557V53.7786V55.9999V58.2228V60.4441V62.667V64.8884V67.1112V69.3341V71.5555V73.7784V75.9997V78.2226V80.4439V82.6668V84.8897V87.111H89.3324V89.3339V91.5552H87.1111V93.7781H84.8882V95.9995V98.2224H87.1111H89.3324V95.9995H91.5553V93.7781H93.7766V91.5552V89.3339V87.111V84.8897V82.6668V80.4439V78.2226V75.9997V73.7784V71.5555V69.3341V67.1112V64.8884V62.667V60.4441V58.2228V55.9999V53.7786V51.5557V49.3328V47.1115V44.8886V42.6672V40.4444V38.223V36.0001V33.7772V31.5559V29.333V27.1117V24.8888H91.5553Z" fill="#F2E108"/>
<path d="M89.3322 78.2226V75.9997V73.7784V71.5555V69.3341V67.1113V64.8884V62.667V60.4441V58.2228V55.9999V53.7786V51.5557V49.3328V47.1115V44.8886V42.6673V40.4444V38.223V36.0001V33.7773V31.5559V29.333V27.1117H87.1108V29.333V31.5559V33.7773V36.0001V38.223V40.4444V42.6673V44.8886V47.1115V49.3328V51.5557V53.7786V55.9999V58.2228V60.4441V62.667V64.8884V67.1113V69.3341V71.5555V73.7784V75.9997V78.2226V80.4439H89.3322V78.2226Z" fill="#F2E108"/>
<path d="M84.8881 89.3339V87.111H87.111V84.8897V82.6668V80.4439H84.8881V82.6668V84.8897H82.6667V87.111V89.3339H80.4438V91.5552H82.6667H84.8881V89.3339Z" fill="#F2E108"/>
<path d="M84.8878 71.5555V69.3341V67.1113V64.8884V62.667V60.4441V58.2228V55.9999V53.7786V51.5557V49.3328V47.1115V44.8886V42.6673V40.4444V38.223V36.0001V33.7773V31.5559V29.333V27.1117H82.6665V29.333V31.5559V33.7773V36.0001V38.223V40.4444V42.6673V44.8886V47.1115V49.3328V51.5557V53.7786V55.9999V58.2228V60.4441V62.667V64.8884V67.1113V69.3341V71.5555V73.7784H84.8878V71.5555Z" fill="#F2E108"/>
<path d="M82.6667 78.2226V75.9997V73.7784H80.4438V75.9997V78.2226V80.4439H82.6667V78.2226Z" fill="#F2E108"/>
<path d="M80.4436 80.4439H78.2207V82.6668H80.4436V80.4439Z" fill="#FFFAA0"/>
<path d="M80.4436 22.6675H82.6665H84.8879H87.1108H89.3321H91.555V20.4446H89.3321H87.1108H84.8879H82.6665H80.4436H78.2208H75.9994H73.7765H71.5552H69.3323H67.111H64.8881H62.6652H60.4439H58.221H55.9996H53.7768H51.5554H49.3325H47.1096H44.8883H42.6654H40.4441H38.2212H35.9999H33.777H31.5541H29.3328H27.1099H24.8885H22.6656H20.4443H18.2214H15.9985V22.6675H18.2214H20.4443H22.6656H24.8885H27.1099H29.3328H31.5541H33.777H35.9999H38.2212H40.4441H42.6654H44.8883H47.1096H49.3325H51.5554H53.7768H55.9996H58.221H60.4439H62.6652H64.8881H67.111H69.3323H71.5552H73.7765H75.9994H78.2208H80.4436Z" fill="#F2E108"/>
<path d="M15.9985 75.9997V78.2226H18.2214V75.9997V73.7784H15.9985V75.9997Z" fill="#F2E108"/>
<path d="M13.7773 80.4439V82.6668V84.8897H15.9987V82.6668V80.4439V78.2226H13.7773V80.4439Z" fill="#F2E108"/>
<path d="M93.7765 16.0004V18.2217V20.4446H91.5552V22.6675H93.7765V24.8888V27.1117V29.333V31.5559V33.7773V36.0001V38.223V40.4444V42.6673V44.8886V47.1115V49.3328V51.5557V53.7786V55.9999V58.2228V60.4441V62.667V64.8884V67.1113V69.3341V71.5555V73.7784V75.9997V78.2226V80.4439V82.6668V84.8897V87.111V89.3339V91.5553V93.7781V95.9995H95.9994V93.7781V91.5553V89.3339V87.111V84.8897V82.6668V80.4439V78.2226V75.9997V73.7784V71.5555V69.3341V67.1113V64.8884V62.667V60.4441V58.2228V55.9999V53.7786V51.5557V49.3328V47.1115V44.8886V42.6673V40.4444V38.223V36.0001V33.7773V31.5559V29.333V27.1117V24.8888V22.6675V20.4446V18.2217V16.0004H93.7765Z" fill="#58595B"/>
<path d="M93.7765 95.9995H91.5552V98.2224H93.7765V95.9995Z" fill="#58595B"/>
<path d="M87.1109 22.6675H84.888H82.6667H80.4438H78.2209H75.9996H73.7767H71.5553H69.3325H67.1111H64.8882H62.6653H60.444H58.2211H55.9998H53.7769H51.5556H49.3327H47.1098H44.8885H42.6656H40.4442H38.2213H36H33.7771H31.5542H29.3329H27.11H24.8887H22.6658H20.4445H18.2216H15.9987V20.4446V18.2217V16.0004V13.7775V11.5562H13.7773V13.7775V16.0004V18.2217V20.4446V22.6675V24.8888H15.9987H18.2216H20.4445H22.6658H24.8887H27.11H29.3329H31.5542H33.7771H36H38.2213H40.4442H42.6656H44.8885H47.1098H49.3327H51.5556H53.7769H55.9998H58.2211H60.444H62.6653H64.8882H67.1111H69.3325H71.5553H73.7767H75.9996H78.2209H80.4438H82.6667H84.888H87.1109H89.3322H91.5551V22.6675H89.3322H87.1109Z" fill="#58595B"/>
<path d="M89.3325 11.5562H87.1112H84.8883H82.667H80.4441H78.2212V13.7775H80.4441H82.667H84.8883H87.1112H89.3325H91.5554V11.5562H89.3325Z" fill="white"/>
<path d="M80.4441 82.6668H78.2212V84.8897H80.4441V82.6668Z" fill="white"/>
<path d="M73.7769 84.8897H71.5556H69.3327H67.1114H64.8885H62.6656H60.4442H58.2214H56H53.7771H51.5558H49.3329H47.11H44.8887H42.6658H40.4445H38.2216H36.0002H33.7774H31.5545H29.3331H27.1102H24.8889H22.666H20.4447H18.2218H15.9989H13.7776H11.5547V87.111H13.7776H15.9989H18.2218H20.4447H22.666H24.8889H27.1102H29.3331H31.5545H33.7774H36.0002H38.2216H40.4445H42.6658H44.8887H47.11H49.3329H51.5558H53.7771H56H58.2214H60.4442H62.6656H64.8885H67.1114H69.3327H71.5556H73.7769H75.9998H78.2211V84.8897H75.9998H73.7769Z" fill="white"/>
<path d="M20.4448 13.7775H22.6661H24.889H27.1104H29.3332H31.5546H33.7775H36.0004H38.2217H40.4446H42.6659H44.8888H47.1101H49.333H51.5559H53.7772H56.0001H58.2215H60.4444H62.6657H64.8886H67.1115H69.3328H71.5557H73.777H75.9999H78.2212V11.5562H75.9999H73.777H71.5557H69.3328H67.1115H64.8886H62.6657H60.4444H58.2215H56.0001H53.7772H51.5559H49.333H47.1101H44.8888H42.6659H40.4446H38.2217H36.0004H33.7775H31.5546H29.3332H27.1104H24.889H22.6661H20.4448H18.2219H15.999V13.7775H18.2219H20.4448Z" fill="white"/>
<path d="M98.2226 16.0004V13.7775V11.5561H95.9997V9.33325H93.7768H91.5555H89.3326H87.1112H84.8884H82.667H80.4441H78.2212H75.9999H73.777H71.5557H69.3328H67.1115H64.8886H62.6657H60.4444H58.2215H56.0001H53.7772H51.5559H49.333H47.1101H44.8888H42.6659H40.4446H38.2217H36.0004H33.7775H31.5546H29.3332H27.1104H24.889H22.6661H20.4448H18.2219H15.999V11.5561H18.2219H20.4448H22.6661H24.889H27.1104H29.3332H31.5546H33.7775H36.0004H38.2217H40.4446H42.6659H44.8888H47.1101H49.333H51.5559H53.7772H56.0001H58.2215H60.4444H62.6657H64.8886H67.1115H69.3328H71.5557H73.777H75.9999H78.2212H80.4441H82.667H84.8884H87.1112H89.3326H91.5555V13.7775V16.0004V18.2217V20.4446H93.7768V18.2217V16.0004V13.7775H95.9997V16.0004V18.2217H98.2226V20.4446V22.6675V24.8888V27.1117V29.333V31.5559V33.7773V36.0001V38.223V40.4444V42.6673V44.8886V47.1115V49.3328V51.5557V53.7786V55.9999V58.2228V60.4441V62.667V64.8884V67.1113V69.3341V71.5555V73.7784H100.444V71.5555V69.3341V67.1113V64.8884V62.667V60.4441V58.2228V55.9999V53.7786V51.5557V49.3328V47.1115V44.8886V42.6673V40.4444V38.223V36.0001V33.7773V31.5559V29.333V27.1117V24.8888V22.6675V20.4446V18.2217V16.0004H98.2226Z" fill="#FFBF3E"/>
<path d="M93.7765 93.7781H91.5552V95.9995H93.7765V93.7781Z" fill="#FFBF3E"/>
<path d="M91.5554 95.9995H89.3325V98.2224H91.5554V95.9995Z" fill="#FFBF3E"/>
<path d="M91.5554 78.2226V75.9997V73.7784V71.5555V69.3341V67.1113V64.8884V62.667V60.4441V58.2228V55.9999V53.7786V51.5557V49.3328V47.1115V44.8886V42.6673V40.4444V38.223V36.0001V33.7773V31.5559V29.333V27.1117H89.3325V29.333V31.5559V33.7773V36.0001V38.223V40.4444V42.6673V44.8886V47.1115V49.3328V51.5557V53.7786V55.9999V58.2228V60.4441V62.667V64.8884V67.1113V69.3341V71.5555V73.7784V75.9997V78.2226V80.4439H91.5554V78.2226Z" fill="#FFBF3E"/>
<path d="M89.3322 84.8897V82.6668V80.4439H87.1108V82.6668V84.8897V87.111H89.3322V84.8897Z" fill="#FFBF3E"/>
<path d="M84.8879 98.2224H82.6666H80.4437H78.2208H75.9995H73.7766H71.5552H69.3323H67.111H64.8881H62.6652H60.4439H58.221H55.9997H53.7768H51.5554H49.3326H47.1097H44.8883H42.6654H40.4441H38.2212H35.9999H33.777H31.5541H29.3328H27.1099H24.8886H22.6657H20.4443V100.445H22.6657H24.8886H27.1099H29.3328H31.5541H33.777H35.9999H38.2212H40.4441H42.6654H44.8883H47.1097H49.3326H51.5554H53.7768H55.9997H58.221H60.4439H62.6652H64.8881H67.111H69.3323H71.5552H73.7766H75.9995H78.2208H80.4437H82.6666H84.8879H87.1108H89.3321V98.2224H87.1108H84.8879Z" fill="#FFBF3E"/>
<path d="M87.1111 89.3339V87.111H84.8882V89.3339V91.5552H87.1111V89.3339Z" fill="#FFBF3E"/>
<path d="M87.1111 71.5555V69.3341V67.1113V64.8884V62.667V60.4441V58.2228V55.9999V53.7786V51.5557V49.3328V47.1115V44.8886V42.6673V40.4444V38.223V36.0001V33.7773V31.5559V29.333V27.1117H84.8882V29.333V31.5559V33.7773V36.0001V38.223V40.4444V42.6673V44.8886V47.1115V49.3328V51.5557V53.7786V55.9999V58.2228V60.4441V62.667V64.8884V67.1113V69.3341V71.5555V73.7784H87.1111V71.5555Z" fill="#FFBF3E"/>
<path d="M84.8883 78.2226V75.9997V73.7784H82.667V75.9997V78.2226V80.4439H84.8883V78.2226Z" fill="#FFBF3E"/>
<path d="M82.6667 82.6668V80.4439H80.4438V82.6668V84.8897H82.6667V82.6668Z" fill="#FFBF3E"/>
<path d="M22.6658 95.9995H24.8887H27.11H29.3329H31.5542H33.7771H36H38.2213H40.4442H42.6656H44.8885H47.1098H49.3327H51.5556H53.7769H55.9998H58.2211H60.444H62.6653H64.8882H67.1111H69.3325H71.5553H73.7767H75.9996H78.2209H80.4438H82.6667H84.888V93.7781V91.5552H82.6667V93.7781H80.4438H78.2209H75.9996H73.7767H71.5553H69.3325H67.1111H64.8882H62.6653H60.444H58.2211H55.9998H53.7769H51.5556H49.3327H47.1098H44.8885H42.6656H40.4442H38.2213H36H33.7771H31.5542H29.3329H27.11H24.8887H22.6658H20.4445H18.2216H15.9987H13.7773V95.9995H15.9987H18.2216H20.4445H22.6658Z" fill="#FFBF3E"/>
<path d="M18.2219 71.5555V69.3341V67.1113V64.8884V62.667V60.4441V58.2228V55.9999V53.7786V51.5557V49.3328V47.1115V44.8886V42.6673V40.4444V38.223V36.0001V33.7773V31.5559V29.333V27.1117H15.999V29.333V31.5559V33.7773V36.0001V38.223V40.4444V42.6673V44.8886V47.1115V49.3328V51.5557V53.7786V55.9999V58.2228V60.4441V62.667V64.8884V67.1113V69.3341V71.5555V73.7784H18.2219V71.5555Z" fill="#FFBF3E"/>
<path d="M15.9987 75.9997V73.7784H13.7773V75.9997V78.2226H15.9987V75.9997Z" fill="#FFBF3E"/>
<path d="M13.7775 89.3339H15.9988H18.2217H20.4446H22.6659H24.8888H27.1101H29.333H31.5544H33.7772H36.0001H38.2215H40.4444H42.6657H44.8886H47.1099H49.3328H51.5557H53.777H55.9999H58.2212H60.4441H62.6655H64.8884H67.1112H69.3326H71.5555H73.7768H75.9997H78.221H80.4439V87.111V84.8897H78.221V87.111H75.9997H73.7768H71.5555H69.3326H67.1112H64.8884H62.6655H60.4441H58.2212H55.9999H53.777H51.5557H49.3328H47.1099H44.8886H42.6657H40.4444H38.2215H36.0001H33.7772H31.5544H29.333H27.1101H24.8888H22.6659H20.4446H18.2217H15.9988H13.7775H11.5546V84.8897H9.33324V87.111H7.11035V89.3339H9.33324H11.5546V91.5553V93.7782H13.7775V91.5553V89.3339Z" fill="#FFBF3E"/>
<path d="M13.7776 82.6668V80.4439V78.2226H11.5547V80.4439V82.6668V84.8897H13.7776V82.6668Z" fill="#FFBF3E"/>
<path d="M93.777 91.5553H91.5557V93.7782H93.777V91.5553Z" fill="#FFFAA0"/>
<path d="M93.777 84.8897H91.5557V87.111H93.777V84.8897Z" fill="#FFFAA0"/>
<path d="M91.5554 89.3339H89.3325V91.5553H91.5554V89.3339Z" fill="#FFFAA0"/>
<path d="M89.3327 93.7782H87.1113V95.9995H89.3327V93.7782Z" fill="#FFFAA0"/>
<path d="M87.1111 84.8897H84.8882V87.111H87.1111V84.8897Z" fill="#FFFAA0"/>
<path d="M87.1111 80.4439H84.8882V82.6668H87.1111V80.4439Z" fill="#FFFAA0"/>
<path d="M84.8883 87.1111H82.667V89.3339H84.8883V87.1111Z" fill="#FFFAA0"/>
<path d="M80.4441 75.9997H78.2212V78.2226H80.4441V75.9997Z" fill="white"/>
<path d="M78.2213 80.4439H76V82.6668H78.2213V80.4439Z" fill="white"/>
<path d="M75.9997 82.6668H73.7769V84.8897H75.9997V82.6668Z" fill="white"/>
<path d="M75.9997 75.9997H73.7769V78.2226H75.9997V75.9997Z" fill="white"/>
<path d="M73.777 80.4439H71.5557V82.6668H73.777V80.4439Z" fill="white"/>
<path d="M71.5559 82.6668H69.333V84.8897H71.5559V82.6668Z" fill="white"/>
<path d="M71.5559 75.9997H69.333V78.2226H71.5559V75.9997Z" fill="white"/>
<path d="M69.3327 80.4439H67.1113V82.6668H69.3327V80.4439Z" fill="white"/>
<path d="M69.3327 73.7784H67.1113V75.9997H69.3327V73.7784Z" fill="white"/>
<path d="M67.1116 82.6668H64.8887V84.8897H67.1116V82.6668Z" fill="white"/>
<path d="M64.8884 80.4439H62.6655V82.6668H64.8884V80.4439Z" fill="white"/>
<path d="M64.8884 75.9997H62.6655V78.2226H64.8884V75.9997Z" fill="white"/>
<path d="M62.6657 78.2226H60.4443V80.4439H62.6657V78.2226Z" fill="white"/>
<path d="M60.4446 82.6668H58.2217V84.8897H60.4446V82.6668Z" fill="white"/>
<path d="M58.2213 80.4439H56V82.6668H58.2213V80.4439Z" fill="white"/>
<path d="M56.0002 75.9997H53.7773V78.2226H56.0002V75.9997Z" fill="white"/>
<path d="M53.777 80.4439H51.5557V82.6668H53.777V80.4439Z" fill="white"/>
<path d="M49.3332 82.6668H47.1104V84.8897H49.3332V82.6668Z" fill="white"/>
<path d="M47.11 78.2226H44.8887V80.4439H47.11V78.2226Z" fill="white"/>
<path d="M42.6657 82.6668H40.4443V84.8897H42.6657V82.6668Z" fill="white"/>
<path d="M40.4446 80.4439H38.2217V82.6668H40.4446V80.4439Z" fill="white"/>
<path d="M38.2218 82.6668H36.0005V84.8897H38.2218V82.6668Z" fill="white"/>
<path d="M36.0002 78.2226H33.7773V80.4439H36.0002V78.2226Z" fill="white"/>
<path d="M31.5543 80.4439H29.333V82.6668H31.5543V80.4439Z" fill="white"/>
<path d="M29.3332 82.6668H27.1104V84.8897H29.3332V82.6668Z" fill="white"/>
</g>
<defs>
<linearGradient id="paint0_linear_5312_211008" x1="49.333" y1="-17.0001" x2="49.333" y2="77.9999" gradientUnits="userSpaceOnUse">
<stop stop-color="white"/>
<stop offset="1" stop-color="#FFFAA0"/>
</linearGradient>
<clipPath id="clip0_5312_211008">
<rect width="112" height="112" fill="white"/>
</clipPath>
</defs>
</svg>
