<svg width="112" height="112" viewBox="0 0 112 112" fill="none" xmlns="http://www.w3.org/2000/svg">
<g clip-path="url(#clip0_5312_202634)">
<path d="M84.8884 49.3344V47.1116H82.667V44.8902H80.4442H78.2228H75.9999V42.6673H73.7786H71.5557V40.4444H69.3328H67.1115H64.8886V38.2231H62.6673H60.4444V36.0002H58.223H56.0002H53.7773V33.7789H51.5559H49.333V31.556H47.1117H44.8888H42.6675V29.3347H40.4446H38.2217V27.1118H36.0004H33.7775H31.5562V24.8889H29.3333H27.1119V22.6676H24.889H22.6662H20.4448V24.8889V27.1118V29.3347V31.556V33.7789V36.0002V38.2231V40.4444V42.6673V44.8902V47.1116V49.3344V51.5558V53.7787V56V58.2229V60.4458V62.6671V64.89V67.1113V69.3342V71.5556V73.7784H22.6662H24.889V76.0013H27.1119H29.3333H31.5562V78.2227H33.7775H36.0004H38.2217V80.4456H40.4446H42.6675V82.6669H44.8888H47.1117H49.333V84.8898H51.5559H53.7773V87.1111H56.0002H58.223V89.334H60.4444H62.6673H64.8886V91.5569H67.1115H69.3328V93.7782H71.5557H73.7786H75.9999V96.0011H78.2228H80.4442V98.2224H82.667H84.8884H87.1113V96.0011V93.7782V91.5569V89.334V87.1111V84.8898V82.6669V80.4456V78.2227V76.0013V73.7784V71.5556V69.3342V67.1113V64.89V62.6671V60.4458V58.2229V56V53.7787V51.5558V49.3344H84.8884Z" fill="url(#paint0_linear_5312_202634)"/>
<path d="M95.9997 100.445H93.7783V102.667H95.9997V100.445Z" fill="black"/>
<path d="M95.9997 98.2224H93.7783V100.445H95.9997V98.2224Z" fill="black"/>
<path d="M95.9997 96.0011H93.7783V98.2225H95.9997V96.0011Z" fill="black"/>
<path d="M95.9997 93.7782H93.7783V96.0011H95.9997V93.7782Z" fill="black"/>
<path d="M95.9997 91.5569H93.7783V93.7782H95.9997V91.5569Z" fill="black"/>
<path d="M95.9997 89.334H93.7783V91.5569H95.9997V89.334Z" fill="black"/>
<path d="M95.9997 87.1111H93.7783V89.334H95.9997V87.1111Z" fill="black"/>
<path d="M95.9997 84.8898H93.7783V87.1111H95.9997V84.8898Z" fill="black"/>
<path d="M95.9997 82.6669H93.7783V84.8898H95.9997V82.6669Z" fill="black"/>
<path d="M95.9997 80.4456H93.7783V82.6669H95.9997V80.4456Z" fill="black"/>
<path d="M95.9997 78.2227H93.7783V80.4456H95.9997V78.2227Z" fill="black"/>
<path d="M95.9997 76.0013H93.7783V78.2227H95.9997V76.0013Z" fill="black"/>
<path d="M95.9997 73.7785H93.7783V76.0013H95.9997V73.7785Z" fill="black"/>
<path d="M95.9997 71.5556H93.7783V73.7784H95.9997V71.5556Z" fill="black"/>
<path d="M95.9997 69.3342H93.7783V71.5556H95.9997V69.3342Z" fill="black"/>
<path d="M95.9997 67.1113H93.7783V69.3342H95.9997V67.1113Z" fill="black"/>
<path d="M95.9997 64.89H93.7783V67.1113H95.9997V64.89Z" fill="black"/>
<path d="M95.9997 62.6671H93.7783V64.89H95.9997V62.6671Z" fill="black"/>
<path d="M95.9997 60.4458H93.7783V62.6671H95.9997V60.4458Z" fill="black"/>
<path d="M95.9997 58.2229H93.7783V60.4458H95.9997V58.2229Z" fill="black"/>
<path d="M95.9997 56H93.7783V58.2229H95.9997V56Z" fill="black"/>
<path d="M95.9997 53.7787H93.7783V56H95.9997V53.7787Z" fill="black"/>
<path d="M95.9997 51.5558H93.7783V53.7787H95.9997V51.5558Z" fill="black"/>
<path d="M95.9997 49.3344H93.7783V51.5558H95.9997V49.3344Z" fill="black"/>
<path d="M95.9997 47.1116H93.7783V49.3344H95.9997V47.1116Z" fill="black"/>
<path d="M95.9997 44.8902H93.7783V47.1116H95.9997V44.8902Z" fill="black"/>
<path d="M95.9997 42.6673H93.7783V44.8902H95.9997V42.6673Z" fill="black"/>
<path d="M95.9997 40.4444H93.7783V42.6673H95.9997V40.4444Z" fill="black"/>
<path d="M95.9997 38.2231H93.7783V40.4444H95.9997V38.2231Z" fill="black"/>
<path d="M95.9997 36.0002H93.7783V38.2231H95.9997V36.0002Z" fill="black"/>
<path d="M95.9997 33.7789H93.7783V36.0002H95.9997V33.7789Z" fill="black"/>
<path d="M95.9997 31.556H93.7783V33.7789H95.9997V31.556Z" fill="black"/>
<path d="M93.7781 102.667H91.5552V104.89H93.7781V102.667Z" fill="black"/>
<path d="M93.7781 100.445H91.5552V102.667H93.7781V100.445Z" fill="black"/>
<path d="M93.7781 98.2224H91.5552V100.445H93.7781V98.2224Z" fill="black"/>
<path d="M93.7781 96.0011H91.5552V98.2225H93.7781V96.0011Z" fill="black"/>
<path d="M93.7781 93.7782H91.5552V96.0011H93.7781V93.7782Z" fill="black"/>
<path d="M93.7781 91.5569H91.5552V93.7782H93.7781V91.5569Z" fill="black"/>
<path d="M93.7781 89.334H91.5552V91.5569H93.7781V89.334Z" fill="black"/>
<path d="M93.7781 87.1111H91.5552V89.334H93.7781V87.1111Z" fill="black"/>
<path d="M93.7781 84.8898H91.5552V87.1111H93.7781V84.8898Z" fill="black"/>
<path d="M93.7781 82.6669H91.5552V84.8898H93.7781V82.6669Z" fill="black"/>
<path d="M93.7781 80.4456H91.5552V82.6669H93.7781V80.4456Z" fill="#A87720"/>
<path d="M93.7781 78.2227H91.5552V80.4456H93.7781V78.2227Z" fill="black"/>
<path d="M93.7781 76.0013H91.5552V78.2227H93.7781V76.0013Z" fill="#A87720"/>
<path d="M93.7781 73.7785H91.5552V76.0013H93.7781V73.7785Z" fill="black"/>
<path d="M93.7781 71.5556H91.5552V73.7784H93.7781V71.5556Z" fill="#A87720"/>
<path d="M93.7781 69.3342H91.5552V71.5556H93.7781V69.3342Z" fill="#A87720"/>
<path d="M93.7781 67.1113H91.5552V69.3342H93.7781V67.1113Z" fill="#A87720"/>
<path d="M93.7781 64.89H91.5552V67.1113H93.7781V64.89Z" fill="#A87720"/>
<path d="M93.7781 62.6671H91.5552V64.89H93.7781V62.6671Z" fill="#A87720"/>
<path d="M93.7781 60.4458H91.5552V62.6671H93.7781V60.4458Z" fill="#A87720"/>
<path d="M93.7781 58.2229H91.5552V60.4458H93.7781V58.2229Z" fill="#A87720"/>
<path d="M93.7781 56H91.5552V58.2229H93.7781V56Z" fill="#A87720"/>
<path d="M93.7781 53.7787H91.5552V56H93.7781V53.7787Z" fill="#A87720"/>
<path d="M93.7781 51.5558H91.5552V53.7787H93.7781V51.5558Z" fill="#A87720"/>
<path d="M93.7781 33.7789H91.5552V36.0002H93.7781V33.7789Z" fill="#A87720"/>
<path d="M93.7781 31.556H91.5552V33.7789H93.7781V31.556Z" fill="#F2E108"/>
<path d="M93.7781 29.3347H91.5552V31.556H93.7781V29.3347Z" fill="black"/>
<path d="M91.5553 102.667H89.334V104.89H91.5553V102.667Z" fill="black"/>
<path d="M91.5553 100.445H89.334V102.667H91.5553V100.445Z" fill="black"/>
<path d="M91.5553 98.2224H89.334V100.445H91.5553V98.2224Z" fill="black"/>
<path d="M91.5553 96.0011H89.334V98.2225H91.5553V96.0011Z" fill="black"/>
<path d="M91.5553 93.7782H89.334V96.0011H91.5553V93.7782Z" fill="black"/>
<path d="M91.5553 91.5569H89.334V93.7782H91.5553V91.5569Z" fill="#A87720"/>
<path d="M91.5553 89.334H89.334V91.5569H91.5553V89.334Z" fill="black"/>
<path d="M91.5553 87.1111H89.334V89.334H91.5553V87.1111Z" fill="#A87720"/>
<path d="M91.5553 84.8898H89.334V87.1111H91.5553V84.8898Z" fill="black"/>
<path d="M91.5553 82.6669H89.334V84.8898H91.5553V82.6669Z" fill="#A87720"/>
<path d="M91.5553 80.4456H89.334V82.6669H91.5553V80.4456Z" fill="#A87720"/>
<path d="M91.5553 78.2227H89.334V80.4456H91.5553V78.2227Z" fill="#A87720"/>
<path d="M91.5553 76.0013H89.334V78.2227H91.5553V76.0013Z" fill="#A87720"/>
<path d="M91.5553 73.7785H89.334V76.0013H91.5553V73.7785Z" fill="#A87720"/>
<path d="M91.5553 71.5556H89.334V73.7784H91.5553V71.5556Z" fill="#A87720"/>
<path d="M91.5553 69.3342H89.334V71.5556H91.5553V69.3342Z" fill="#A87720"/>
<path d="M91.5553 67.1113H89.334V69.3342H91.5553V67.1113Z" fill="#A87720"/>
<path d="M91.5553 64.89H89.334V67.1113H91.5553V64.89Z" fill="#A87720"/>
<path d="M91.5553 62.6671H89.334V64.89H91.5553V62.6671Z" fill="#A87720"/>
<path d="M91.5553 60.4458H89.334V62.6671H91.5553V60.4458Z" fill="#A87720"/>
<path d="M91.5553 58.2229H89.334V60.4458H91.5553V58.2229Z" fill="#A87720"/>
<path d="M91.5553 56H89.334V58.2229H91.5553V56Z" fill="#A87720"/>
<path d="M91.5553 53.7787H89.334V56H91.5553V53.7787Z" fill="#A87720"/>
<path d="M91.5553 51.5558H89.334V53.7787H91.5553V51.5558Z" fill="#A87720"/>
<path d="M91.5553 49.3344H89.334V51.5558H91.5553V49.3344Z" fill="#A87720"/>
<path d="M91.5553 47.1116H89.334V49.3344H91.5553V47.1116Z" fill="#A87720"/>
<path d="M91.5553 31.556H89.334V33.7789H91.5553V31.556Z" fill="#F2E108"/>
<path d="M91.5553 29.3347H89.334V31.556H91.5553V29.3347Z" fill="black"/>
<path d="M89.3342 102.667H87.1113V104.89H89.3342V102.667Z" fill="black"/>
<path d="M89.3342 100.445H87.1113V102.667H89.3342V100.445Z" fill="black"/>
<path d="M89.3342 98.2224H87.1113V100.445H89.3342V98.2224Z" fill="black"/>
<path d="M89.3342 96.0011H87.1113V98.2225H89.3342V96.0011Z" fill="black"/>
<path d="M89.3342 93.7782H87.1113V96.0011H89.3342V93.7782Z" fill="black"/>
<path d="M89.3342 91.5569H87.1113V93.7782H89.3342V91.5569Z" fill="black"/>
<path d="M89.3342 89.334H87.1113V91.5569H89.3342V89.334Z" fill="black"/>
<path d="M89.3342 87.1111H87.1113V89.334H89.3342V87.1111Z" fill="black"/>
<path d="M89.3342 84.8898H87.1113V87.1111H89.3342V84.8898Z" fill="black"/>
<path d="M89.3342 82.6669H87.1113V84.8898H89.3342V82.6669Z" fill="black"/>
<path d="M89.3342 80.4456H87.1113V82.6669H89.3342V80.4456Z" fill="black"/>
<path d="M89.3342 78.2227H87.1113V80.4456H89.3342V78.2227Z" fill="black"/>
<path d="M89.3342 76.0013H87.1113V78.2227H89.3342V76.0013Z" fill="black"/>
<path d="M89.3342 73.7785H87.1113V76.0013H89.3342V73.7785Z" fill="black"/>
<path d="M89.3342 71.5556H87.1113V73.7784H89.3342V71.5556Z" fill="black"/>
<path d="M89.3342 69.3342H87.1113V71.5556H89.3342V69.3342Z" fill="black"/>
<path d="M89.3342 67.1113H87.1113V69.3342H89.3342V67.1113Z" fill="black"/>
<path d="M89.3342 64.89H87.1113V67.1113H89.3342V64.89Z" fill="black"/>
<path d="M89.3342 62.6671H87.1113V64.89H89.3342V62.6671Z" fill="black"/>
<path d="M89.3342 60.4458H87.1113V62.6671H89.3342V60.4458Z" fill="black"/>
<path d="M89.3342 58.2229H87.1113V60.4458H89.3342V58.2229Z" fill="black"/>
<path d="M89.3342 56H87.1113V58.2229H89.3342V56Z" fill="black"/>
<path d="M89.3342 53.7787H87.1113V56H89.3342V53.7787Z" fill="black"/>
<path d="M89.3342 51.5558H87.1113V53.7787H89.3342V51.5558Z" fill="black"/>
<path d="M89.3342 49.3344H87.1113V51.5558H89.3342V49.3344Z" fill="black"/>
<path d="M89.3342 47.1116H87.1113V49.3344H89.3342V47.1116Z" fill="black"/>
<path d="M89.3342 44.8902H87.1113V47.1116H89.3342V44.8902Z" fill="black"/>
<path d="M89.3342 42.6673H87.1113V44.8902H89.3342V42.6673Z" fill="black"/>
<path d="M89.3342 31.556H87.1113V33.7789H89.3342V31.556Z" fill="#A87720"/>
<path d="M89.3342 29.3347H87.1113V31.556H89.3342V29.3347Z" fill="#F2E108"/>
<path d="M89.3342 27.1118H87.1113V29.3347H89.3342V27.1118Z" fill="black"/>
<path d="M87.1111 102.667H84.8882V104.89H87.1111V102.667Z" fill="black"/>
<path d="M87.1111 100.445H84.8882V102.667H87.1111V100.445Z" fill="#A87720"/>
<path d="M87.1111 98.2224H84.8882V100.445H87.1111V98.2224Z" fill="#F2E108"/>
<path d="M87.1111 47.1116H84.8882V49.3344H87.1111V47.1116Z" fill="#A87720"/>
<path d="M87.1111 44.8902H84.8882V47.1116H87.1111V44.8902Z" fill="#F2E108"/>
<path d="M87.1111 42.6673H84.8882V44.8902H87.1111V42.6673Z" fill="black"/>
<path d="M87.1111 29.3347H84.8882V31.556H87.1111V29.3347Z" fill="#F2E108"/>
<path d="M87.1111 27.1118H84.8882V29.3347H87.1111V27.1118Z" fill="black"/>
<path d="M84.8883 100.445H82.667V102.667H84.8883V100.445Z" fill="black"/>
<path d="M84.8883 98.2224H82.667V100.445H84.8883V98.2224Z" fill="#A87720"/>
<path d="M84.8883 44.8902H82.667V47.1116H84.8883V44.8902Z" fill="#A87720"/>
<path d="M84.8883 42.6673H82.667V44.8902H84.8883V42.6673Z" fill="#F2E108"/>
<path d="M84.8883 40.4444H82.667V42.6673H84.8883V40.4444Z" fill="black"/>
<path d="M84.8883 29.3347H82.667V31.556H84.8883V29.3347Z" fill="#F2E108"/>
<path d="M84.8883 27.1118H82.667V29.3347H84.8883V27.1118Z" fill="black"/>
<path d="M82.6667 100.445H80.4438V102.667H82.6667V100.445Z" fill="black"/>
<path d="M82.6667 98.2224H80.4438V100.445H82.6667V98.2224Z" fill="#A87720"/>
<path d="M82.6667 42.6673H80.4438V44.8902H82.6667V42.6673Z" fill="#F2E108"/>
<path d="M82.6667 40.4444H80.4438V42.6673H82.6667V40.4444Z" fill="black"/>
<path d="M82.6667 29.3347H80.4438V31.556H82.6667V29.3347Z" fill="#A87720"/>
<path d="M82.6667 27.1118H80.4438V29.3347H82.6667V27.1118Z" fill="#F2E108"/>
<path d="M82.6667 24.8889H80.4438V27.1118H82.6667V24.8889Z" fill="black"/>
<path d="M80.444 100.445H78.2227V102.667H80.444V100.445Z" fill="black"/>
<path d="M80.444 98.2224H78.2227V100.445H80.444V98.2224Z" fill="#A87720"/>
<path d="M80.444 96.0011H78.2227V98.2225H80.444V96.0011Z" fill="#F2E108"/>
<path d="M80.444 42.6673H78.2227V44.8902H80.444V42.6673Z" fill="#F2E108"/>
<path d="M80.444 40.4444H78.2227V42.6673H80.444V40.4444Z" fill="black"/>
<path d="M80.444 27.1118H78.2227V29.3347H80.444V27.1118Z" fill="#F2E108"/>
<path d="M80.444 24.8889H78.2227V27.1118H80.444V24.8889Z" fill="black"/>
<path d="M78.2229 98.2224H76V100.445H78.2229V98.2224Z" fill="black"/>
<path d="M78.2229 96.0011H76V98.2225H78.2229V96.0011Z" fill="#A87720"/>
<path d="M78.2229 42.6673H76V44.8902H78.2229V42.6673Z" fill="#A87720"/>
<path d="M78.2229 40.4444H76V42.6673H78.2229V40.4444Z" fill="#F2E108"/>
<path d="M78.2229 38.2231H76V40.4444H78.2229V38.2231Z" fill="black"/>
<path d="M78.2229 27.1118H76V29.3347H78.2229V27.1118Z" fill="#A87720"/>
<path d="M78.2229 24.8889H76V27.1118H78.2229V24.8889Z" fill="#F2E108"/>
<path d="M78.2229 22.6676H76V24.8889H78.2229V22.6676Z" fill="black"/>
<path d="M75.9997 98.2224H73.7783V100.445H75.9997V98.2224Z" fill="black"/>
<path d="M75.9997 96.0011H73.7783V98.2225H75.9997V96.0011Z" fill="#A87720"/>
<path d="M75.9997 93.7782H73.7783V96.0011H75.9997V93.7782Z" fill="#F2E108"/>
<path d="M75.9997 40.4444H73.7783V42.6673H75.9997V40.4444Z" fill="#F2E108"/>
<path d="M75.9997 38.2231H73.7783V40.4444H75.9997V38.2231Z" fill="black"/>
<path d="M75.9997 24.8889H73.7783V27.1118H75.9997V24.8889Z" fill="#F2E108"/>
<path d="M75.9997 22.6676H73.7783V24.8889H75.9997V22.6676Z" fill="black"/>
<path d="M73.7786 96.0011H71.5557V98.2225H73.7786V96.0011Z" fill="black"/>
<path d="M73.7786 93.7782H71.5557V96.0011H73.7786V93.7782Z" fill="#A87720"/>
<path d="M73.7786 40.4444H71.5557V42.6673H73.7786V40.4444Z" fill="#A87720"/>
<path d="M73.7786 38.2231H71.5557V40.4444H73.7786V38.2231Z" fill="#F2E108"/>
<path d="M73.7786 36.0002H71.5557V38.2231H73.7786V36.0002Z" fill="black"/>
<path d="M73.7786 24.8889H71.5557V27.1118H73.7786V24.8889Z" fill="#F2E108"/>
<path d="M73.7786 22.6676H71.5557V24.8889H73.7786V22.6676Z" fill="black"/>
<path d="M71.5554 96.0011H69.3325V98.2225H71.5554V96.0011Z" fill="black"/>
<path d="M71.5554 93.7782H69.3325V96.0011H71.5554V93.7782Z" fill="#A87720"/>
<path d="M71.5554 38.2231H69.3325V40.4444H71.5554V38.2231Z" fill="#F2E108"/>
<path d="M71.5554 36.0002H69.3325V38.2231H71.5554V36.0002Z" fill="black"/>
<path d="M71.5554 24.8889H69.3325V27.1118H71.5554V24.8889Z" fill="#A87720"/>
<path d="M71.5554 22.6676H69.3325V24.8889H71.5554V22.6676Z" fill="#F2E108"/>
<path d="M71.5554 20.4447H69.3325V22.6676H71.5554V20.4447Z" fill="black"/>
<path d="M69.3327 96.0011H67.1113V98.2225H69.3327V96.0011Z" fill="black"/>
<path d="M69.3327 93.7782H67.1113V96.0011H69.3327V93.7782Z" fill="#A87720"/>
<path d="M69.3327 91.5569H67.1113V93.7782H69.3327V91.5569Z" fill="#F2E108"/>
<path d="M69.3327 38.2231H67.1113V40.4444H69.3327V38.2231Z" fill="#F2E108"/>
<path d="M69.3327 36.0002H67.1113V38.2231H69.3327V36.0002Z" fill="black"/>
<path d="M69.3327 22.6676H67.1113V24.8889H69.3327V22.6676Z" fill="#F2E108"/>
<path d="M69.3327 20.4447H67.1113V22.6676H69.3327V20.4447Z" fill="black"/>
<path d="M67.1116 93.7782H64.8887V96.0011H67.1116V93.7782Z" fill="black"/>
<path d="M67.1116 91.5569H64.8887V93.7782H67.1116V91.5569Z" fill="#A87720"/>
<path d="M67.1116 38.2231H64.8887V40.4444H67.1116V38.2231Z" fill="#A87720"/>
<path d="M67.1116 36.0002H64.8887V38.2231H67.1116V36.0002Z" fill="#F2E108"/>
<path d="M67.1116 33.7789H64.8887V36.0002H67.1116V33.7789Z" fill="black"/>
<path d="M67.1116 22.6676H64.8887V24.8889H67.1116V22.6676Z" fill="#A87720"/>
<path d="M67.1116 20.4447H64.8887V22.6676H67.1116V20.4447Z" fill="#F2E108"/>
<path d="M67.1116 18.2233H64.8887V20.4447H67.1116V18.2233Z" fill="black"/>
<path d="M64.8883 93.7782H62.667V96.0011H64.8883V93.7782Z" fill="black"/>
<path d="M64.8883 91.5569H62.667V93.7782H64.8883V91.5569Z" fill="#A87720"/>
<path d="M64.8883 89.334H62.667V91.5569H64.8883V89.334Z" fill="#F2E108"/>
<path d="M64.8883 36.0002H62.667V38.2231H64.8883V36.0002Z" fill="#F2E108"/>
<path d="M64.8883 33.7789H62.667V36.0002H64.8883V33.7789Z" fill="black"/>
<path d="M64.8883 20.4447H62.667V22.6676H64.8883V20.4447Z" fill="#F2E108"/>
<path d="M64.8883 18.2233H62.667V20.4447H64.8883V18.2233Z" fill="black"/>
<path d="M62.6672 91.5569H60.4443V93.7782H62.6672V91.5569Z" fill="black"/>
<path d="M62.6672 89.334H60.4443V91.5569H62.6672V89.334Z" fill="#A87720"/>
<path d="M62.6672 36.0002H60.4443V38.2231H62.6672V36.0002Z" fill="#A87720"/>
<path d="M62.6672 33.7789H60.4443V36.0002H62.6672V33.7789Z" fill="#F2E108"/>
<path d="M62.6672 31.556H60.4443V33.7789H62.6672V31.556Z" fill="black"/>
<path d="M62.6672 22.6676H60.4443V24.8889H62.6672V22.6676Z" fill="#A87720"/>
<path d="M62.6672 20.4447H60.4443V22.6676H62.6672V20.4447Z" fill="#F2E108"/>
<path d="M62.6672 18.2233H60.4443V20.4447H62.6672V18.2233Z" fill="black"/>
<path d="M60.4445 91.5569H58.2231V93.7782H60.4445V91.5569Z" fill="black"/>
<path d="M60.4445 89.334H58.2231V91.5569H60.4445V89.334Z" fill="#A87720"/>
<path d="M60.4445 33.7789H58.2231V36.0002H60.4445V33.7789Z" fill="#F2E108"/>
<path d="M60.4445 31.556H58.2231V33.7789H60.4445V31.556Z" fill="black"/>
<path d="M60.4445 22.6676H58.2231V24.8889H60.4445V22.6676Z" fill="#F2E108"/>
<path d="M60.4445 20.4447H58.2231V22.6676H60.4445V20.4447Z" fill="black"/>
<path d="M58.2229 91.5569H56V93.7782H58.2229V91.5569Z" fill="black"/>
<path d="M58.2229 89.334H56V91.5569H58.2229V89.334Z" fill="#A87720"/>
<path d="M58.2229 87.1111H56V89.334H58.2229V87.1111Z" fill="#F2E108"/>
<path d="M58.2229 33.7789H56V36.0002H58.2229V33.7789Z" fill="#F2E108"/>
<path d="M58.2229 31.556H56V33.7789H58.2229V31.556Z" fill="black"/>
<path d="M58.2229 22.6676H56V24.8889H58.2229V22.6676Z" fill="#F2E108"/>
<path d="M58.2229 20.4447H56V22.6676H58.2229V20.4447Z" fill="black"/>
<path d="M56.0002 89.334H53.7773V91.5569H56.0002V89.334Z" fill="black"/>
<path d="M56.0002 87.1111H53.7773V89.334H56.0002V87.1111Z" fill="#A87720"/>
<path d="M56.0002 33.7789H53.7773V36.0002H56.0002V33.7789Z" fill="#A87720"/>
<path d="M56.0002 31.556H53.7773V33.7789H56.0002V31.556Z" fill="#F2E108"/>
<path d="M56.0002 29.3347H53.7773V31.556H56.0002V29.3347Z" fill="black"/>
<path d="M56.0002 22.6676H53.7773V24.8889H56.0002V22.6676Z" fill="#A87720"/>
<path d="M56.0002 20.4447H53.7773V22.6676H56.0002V20.4447Z" fill="#F2E108"/>
<path d="M56.0002 18.2233H53.7773V20.4447H56.0002V18.2233Z" fill="black"/>
<path d="M53.777 89.334H51.5557V91.5569H53.777V89.334Z" fill="black"/>
<path d="M53.777 87.1111H51.5557V89.334H53.777V87.1111Z" fill="#A87720"/>
<path d="M53.777 84.8898H51.5557V87.1111H53.777V84.8898Z" fill="#F2E108"/>
<path d="M53.777 31.556H51.5557V33.7789H53.777V31.556Z" fill="#F2E108"/>
<path d="M53.777 29.3347H51.5557V31.556H53.777V29.3347Z" fill="black"/>
<path d="M53.777 20.4447H51.5557V22.6676H53.777V20.4447Z" fill="#F2E108"/>
<path d="M53.777 18.2233H51.5557V20.4447H53.777V18.2233Z" fill="black"/>
<path d="M51.5559 87.1111H49.333V89.334H51.5559V87.1111Z" fill="black"/>
<path d="M51.5559 84.8898H49.333V87.1111H51.5559V84.8898Z" fill="#A87720"/>
<path d="M51.5559 31.556H49.333V33.7789H51.5559V31.556Z" fill="#A87720"/>
<path d="M51.5559 29.3347H49.333V31.556H51.5559V29.3347Z" fill="#F2E108"/>
<path d="M51.5559 27.1118H49.333V29.3347H51.5559V27.1118Z" fill="black"/>
<path d="M51.5559 20.4447H49.333V22.6676H51.5559V20.4447Z" fill="#F2E108"/>
<path d="M51.5559 18.2233H49.333V20.4447H51.5559V18.2233Z" fill="black"/>
<path d="M49.3332 87.1111H47.1118V89.334H49.3332V87.1111Z" fill="black"/>
<path d="M49.3332 84.8898H47.1118V87.1111H49.3332V84.8898Z" fill="#A87720"/>
<path d="M49.3332 29.3347H47.1118V31.556H49.3332V29.3347Z" fill="#F2E108"/>
<path d="M49.3332 27.1118H47.1118V29.3347H49.3332V27.1118Z" fill="black"/>
<path d="M49.3332 20.4447H47.1118V22.6676H49.3332V20.4447Z" fill="#A87720"/>
<path d="M49.3332 18.2233H47.1118V20.4447H49.3332V18.2233Z" fill="#F2E108"/>
<path d="M49.3332 16.0004H47.1118V18.2233H49.3332V16.0004Z" fill="black"/>
<path d="M47.1116 87.1111H44.8887V89.334H47.1116V87.1111Z" fill="black"/>
<path d="M47.1116 84.8898H44.8887V87.1111H47.1116V84.8898Z" fill="#A87720"/>
<path d="M47.1116 82.6669H44.8887V84.8898H47.1116V82.6669Z" fill="#F2E108"/>
<path d="M47.1116 29.3347H44.8887V31.556H47.1116V29.3347Z" fill="#F2E108"/>
<path d="M47.1116 27.1118H44.8887V29.3347H47.1116V27.1118Z" fill="black"/>
<path d="M47.1116 18.2233H44.8887V20.4447H47.1116V18.2233Z" fill="#F2E108"/>
<path d="M47.1116 16.0004H44.8887V18.2233H47.1116V16.0004Z" fill="black"/>
<path d="M44.8888 84.8898H42.6675V87.1111H44.8888V84.8898Z" fill="black"/>
<path d="M44.8888 82.6669H42.6675V84.8898H44.8888V82.6669Z" fill="#A87720"/>
<path d="M44.8888 29.3347H42.6675V31.556H44.8888V29.3347Z" fill="#A87720"/>
<path d="M44.8888 27.1118H42.6675V29.3347H44.8888V27.1118Z" fill="#F2E108"/>
<path d="M44.8888 24.8889H42.6675V27.1118H44.8888V24.8889Z" fill="black"/>
<path d="M44.8888 18.2233H42.6675V20.4447H44.8888V18.2233Z" fill="#A87720"/>
<path d="M44.8888 16.0004H42.6675V18.2233H44.8888V16.0004Z" fill="#F2E108"/>
<path d="M44.8888 13.7791H42.6675V16.0004H44.8888V13.7791Z" fill="black"/>
<path d="M42.6672 84.8898H40.4443V87.1111H42.6672V84.8898Z" fill="black"/>
<path d="M42.6672 82.6669H40.4443V84.8898H42.6672V82.6669Z" fill="#A87720"/>
<path d="M42.6672 80.4456H40.4443V82.6669H42.6672V80.4456Z" fill="#F2E108"/>
<path d="M42.6672 27.1118H40.4443V29.3347H42.6672V27.1118Z" fill="#F2E108"/>
<path d="M42.6672 24.8889H40.4443V27.1118H42.6672V24.8889Z" fill="black"/>
<path d="M42.6672 16.0004H40.4443V18.2233H42.6672V16.0004Z" fill="#F2E108"/>
<path d="M42.6672 13.7791H40.4443V16.0004H42.6672V13.7791Z" fill="black"/>
<path d="M40.4446 82.6669H38.2217V84.8898H40.4446V82.6669Z" fill="black"/>
<path d="M40.4446 80.4456H38.2217V82.6669H40.4446V80.4456Z" fill="#A87720"/>
<path d="M40.4446 27.1118H38.2217V29.3347H40.4446V27.1118Z" fill="#A87720"/>
<path d="M40.4446 24.8889H38.2217V27.1118H40.4446V24.8889Z" fill="#F2E108"/>
<path d="M40.4446 22.6676H38.2217V24.8889H40.4446V22.6676Z" fill="black"/>
<path d="M40.4446 16.0004H38.2217V18.2233H40.4446V16.0004Z" fill="#F2E108"/>
<path d="M40.4446 13.7791H38.2217V16.0004H40.4446V13.7791Z" fill="black"/>
<path d="M38.2218 82.6669H36.0005V84.8898H38.2218V82.6669Z" fill="black"/>
<path d="M38.2218 80.4456H36.0005V82.6669H38.2218V80.4456Z" fill="#A87720"/>
<path d="M38.2218 24.8889H36.0005V27.1118H38.2218V24.8889Z" fill="#F2E108"/>
<path d="M38.2218 22.6676H36.0005V24.8889H38.2218V22.6676Z" fill="black"/>
<path d="M38.2218 16.0004H36.0005V18.2233H38.2218V16.0004Z" fill="#A87720"/>
<path d="M38.2218 13.7791H36.0005V16.0004H38.2218V13.7791Z" fill="#F2E108"/>
<path d="M38.2218 11.5562H36.0005V13.7791H38.2218V11.5562Z" fill="black"/>
<path d="M36.0002 82.6669H33.7773V84.8898H36.0002V82.6669Z" fill="black"/>
<path d="M36.0002 80.4456H33.7773V82.6669H36.0002V80.4456Z" fill="#A87720"/>
<path d="M36.0002 78.2227H33.7773V80.4456H36.0002V78.2227Z" fill="#F2E108"/>
<path d="M36.0002 24.8889H33.7773V27.1118H36.0002V24.8889Z" fill="#F2E108"/>
<path d="M36.0002 22.6676H33.7773V24.8889H36.0002V22.6676Z" fill="black"/>
<path d="M36.0002 13.7791H33.7773V16.0004H36.0002V13.7791Z" fill="#F2E108"/>
<path d="M36.0002 11.5562H33.7773V13.7791H36.0002V11.5562Z" fill="black"/>
<path d="M33.7775 80.4456H31.5562V82.6669H33.7775V80.4456Z" fill="black"/>
<path d="M33.7775 78.2227H31.5562V80.4456H33.7775V78.2227Z" fill="#A87720"/>
<path d="M33.7775 24.8889H31.5562V27.1118H33.7775V24.8889Z" fill="#A87720"/>
<path d="M33.7775 22.6676H31.5562V24.8889H33.7775V22.6676Z" fill="#F2E108"/>
<path d="M33.7775 20.4447H31.5562V22.6676H33.7775V20.4447Z" fill="black"/>
<path d="M33.7775 13.7791H31.5562V16.0004H33.7775V13.7791Z" fill="#A87720"/>
<path d="M33.7775 11.5562H31.5562V13.7791H33.7775V11.5562Z" fill="#F2E108"/>
<path d="M33.7775 9.33333H31.5562V11.5562H33.7775V9.33333Z" fill="black"/>
<path d="M31.5559 80.4456H29.333V82.6669H31.5559V80.4456Z" fill="black"/>
<path d="M31.5559 78.2227H29.333V80.4456H31.5559V78.2227Z" fill="#A87720"/>
<path d="M31.5559 76.0013H29.333V78.2227H31.5559V76.0013Z" fill="#F2E108"/>
<path d="M31.5559 22.6676H29.333V24.8889H31.5559V22.6676Z" fill="#F2E108"/>
<path d="M31.5559 20.4447H29.333V22.6676H31.5559V20.4447Z" fill="black"/>
<path d="M31.5559 11.5562H29.333V13.7791H31.5559V11.5562Z" fill="#F2E108"/>
<path d="M31.5559 9.33333H29.333V11.5562H31.5559V9.33333Z" fill="black"/>
<path d="M29.3332 78.2227H27.1118V80.4456H29.3332V78.2227Z" fill="black"/>
<path d="M29.3332 76.0013H27.1118V78.2227H29.3332V76.0013Z" fill="#A87720"/>
<path d="M29.3332 22.6676H27.1118V24.8889H29.3332V22.6676Z" fill="#A87720"/>
<path d="M29.3332 20.4447H27.1118V22.6676H29.3332V20.4447Z" fill="#F2E108"/>
<path d="M29.3332 18.2233H27.1118V20.4447H29.3332V18.2233Z" fill="black"/>
<path d="M29.3332 11.5562H27.1118V13.7791H29.3332V11.5562Z" fill="#F2E108"/>
<path d="M29.3332 9.33333H27.1118V11.5562H29.3332V9.33333Z" fill="black"/>
<path d="M27.112 78.2227H24.8892V80.4456H27.112V78.2227Z" fill="black"/>
<path d="M27.112 76.0013H24.8892V78.2227H27.112V76.0013Z" fill="#A87720"/>
<path d="M27.112 20.4447H24.8892V22.6676H27.112V20.4447Z" fill="#F2E108"/>
<path d="M27.112 18.2233H24.8892V20.4447H27.112V18.2233Z" fill="black"/>
<path d="M91.5551 36.0002V33.7789H89.3338H87.1109V31.556H84.888H82.6667H80.4438V29.3347H78.2224H75.9996V27.1118H73.7782H71.5553H69.3324V24.8889H67.1111H64.8882V22.6676H62.6669V24.8889H60.444H58.2227H55.9998H53.7769V22.6676H51.5556H49.3327H47.1113V20.4447H44.8884H42.6671V18.2233H40.4442H38.2213H36V16.0004H33.7771H31.5558V13.7791H29.3329H27.1116V16.0004H24.8887V18.2233H27.1116H29.3329V20.4447H31.5558H33.7771V22.6676H36H38.2213H40.4442V24.8889H42.6671H44.8884V27.1118H47.1113H49.3327H51.5556V29.3347H53.7769H55.9998V31.556H58.2227H60.444H62.6669V33.7789H64.8882H67.1111V36.0002H69.3324H71.5553H73.7782V38.2231H75.9996H78.2224V40.4444H80.4438H82.6667H84.888V42.6673H87.1109H89.3338V44.8902V47.1116H91.5551V49.3344V51.5558H93.778V49.3344V47.1116V44.8902V42.6673V40.4444V38.2231V36.0002H91.5551Z" fill="url(#paint1_linear_5312_202634)"/>
<path d="M49.3332 82.6669H47.1118V84.8898H49.3332V82.6669Z" fill="#FFBF3E"/>
<path d="M38.2218 78.2227H36.0005V80.4456H38.2218V78.2227Z" fill="#FFBF3E"/>
<path d="M27.112 13.7791H24.8892V16.0004H27.112V13.7791Z" fill="#A87720"/>
<path d="M27.112 11.5562H24.8892V13.7791H27.112V11.5562Z" fill="#F2E108"/>
<path d="M27.112 9.33333H24.8892V11.5562H27.112V9.33333Z" fill="black"/>
<path d="M24.8889 78.2227H22.666V80.4456H24.8889V78.2227Z" fill="black"/>
<path d="M24.8889 76.0013H22.666V78.2227H24.8889V76.0013Z" fill="#A87720"/>
<path d="M24.8889 73.7785H22.666V76.0013H24.8889V73.7785Z" fill="#F2E108"/>
<path d="M24.8889 20.4447H22.666V22.6676H24.8889V20.4447Z" fill="#F2E108"/>
<path d="M24.8889 18.2233H22.666V20.4447H24.8889V18.2233Z" fill="black"/>
<path d="M24.8889 16.0004H22.666V18.2233H24.8889V16.0004Z" fill="#A87720"/>
<path d="M24.8889 13.7791H22.666V16.0004H24.8889V13.7791Z" fill="black"/>
<path d="M24.8889 11.5562H22.666V13.7791H24.8889V11.5562Z" fill="black"/>
<path d="M22.6662 76.0013H20.4448V78.2227H22.6662V76.0013Z" fill="black"/>
<path d="M22.6662 73.7785H20.4448V76.0013H22.6662V73.7785Z" fill="#A87720"/>
<path d="M22.6662 20.4447H20.4448V22.6676H22.6662V20.4447Z" fill="#A87720"/>
<path d="M22.6662 18.2233H20.4448V20.4447H22.6662V18.2233Z" fill="#F2E108"/>
<path d="M22.6662 16.0004H20.4448V18.2233H22.6662V16.0004Z" fill="black"/>
<path d="M20.4446 76.0013H18.2217V78.2227H20.4446V76.0013Z" fill="black"/>
<path d="M20.4446 73.7785H18.2217V76.0013H20.4446V73.7785Z" fill="#A87720"/>
<path d="M20.4446 71.5556H18.2217V73.7784H20.4446V71.5556Z" fill="#F2E108"/>
<path d="M20.4446 69.3342H18.2217V71.5556H20.4446V69.3342Z" fill="#F2E108"/>
<path d="M20.4446 67.1113H18.2217V69.3342H20.4446V67.1113Z" fill="#F2E108"/>
<path d="M20.4446 64.89H18.2217V67.1113H20.4446V64.89Z" fill="#F2E108"/>
<path d="M20.4446 62.6671H18.2217V64.89H20.4446V62.6671Z" fill="#F2E108"/>
<path d="M20.4446 60.4458H18.2217V62.6671H20.4446V60.4458Z" fill="#F2E108"/>
<path d="M20.4446 58.2229H18.2217V60.4458H20.4446V58.2229Z" fill="#F2E108"/>
<path d="M20.4446 56H18.2217V58.2229H20.4446V56Z" fill="#F2E108"/>
<path d="M20.4446 53.7787H18.2217V56H20.4446V53.7787Z" fill="#F2E108"/>
<path d="M20.4446 51.5558H18.2217V53.7787H20.4446V51.5558Z" fill="#F2E108"/>
<path d="M20.4446 49.3344H18.2217V51.5558H20.4446V49.3344Z" fill="#F2E108"/>
<path d="M20.4446 47.1116H18.2217V49.3344H20.4446V47.1116Z" fill="#F2E108"/>
<path d="M20.4446 44.8902H18.2217V47.1116H20.4446V44.8902Z" fill="#F2E108"/>
<path d="M20.4446 42.6673H18.2217V44.8902H20.4446V42.6673Z" fill="#F2E108"/>
<path d="M20.4446 40.4444H18.2217V42.6673H20.4446V40.4444Z" fill="#F2E108"/>
<path d="M20.4446 38.2231H18.2217V40.4444H20.4446V38.2231Z" fill="#F2E108"/>
<path d="M20.4446 36.0002H18.2217V38.2231H20.4446V36.0002Z" fill="#F2E108"/>
<path d="M20.4446 33.7789H18.2217V36.0002H20.4446V33.7789Z" fill="#F2E108"/>
<path d="M20.4446 31.556H18.2217V33.7789H20.4446V31.556Z" fill="#F2E108"/>
<path d="M20.4446 29.3347H18.2217V31.556H20.4446V29.3347Z" fill="#F2E108"/>
<path d="M20.4446 27.1118H18.2217V29.3347H20.4446V27.1118Z" fill="#F2E108"/>
<path d="M20.4446 24.8889H18.2217V27.1118H20.4446V24.8889Z" fill="#F2E108"/>
<path d="M20.4446 22.6676H18.2217V24.8889H20.4446V22.6676Z" fill="#F2E108"/>
<path d="M20.4446 20.4447H18.2217V22.6676H20.4446V20.4447Z" fill="#F2E108"/>
<path d="M20.4446 18.2233H18.2217V20.4447H20.4446V18.2233Z" fill="#F2E108"/>
<path d="M20.4446 16.0004H18.2217V18.2233H20.4446V16.0004Z" fill="black"/>
<path d="M18.2218 73.7785H16.0005V76.0013H18.2218V73.7785Z" fill="black"/>
<path d="M18.2218 71.5556H16.0005V73.7784H18.2218V71.5556Z" fill="black"/>
<path d="M18.2218 69.3342H16.0005V71.5556H18.2218V69.3342Z" fill="black"/>
<path d="M18.2218 67.1113H16.0005V69.3342H18.2218V67.1113Z" fill="black"/>
<path d="M18.2218 64.89H16.0005V67.1113H18.2218V64.89Z" fill="black"/>
<path d="M18.2218 62.6671H16.0005V64.89H18.2218V62.6671Z" fill="black"/>
<path d="M18.2218 60.4458H16.0005V62.6671H18.2218V60.4458Z" fill="black"/>
<path d="M18.2218 58.2229H16.0005V60.4458H18.2218V58.2229Z" fill="black"/>
<path d="M18.2218 56H16.0005V58.2229H18.2218V56Z" fill="black"/>
<path d="M18.2218 53.7787H16.0005V56H18.2218V53.7787Z" fill="black"/>
<path d="M18.2218 51.5558H16.0005V53.7787H18.2218V51.5558Z" fill="black"/>
<path d="M18.2218 49.3344H16.0005V51.5558H18.2218V49.3344Z" fill="black"/>
<path d="M18.2218 47.1116H16.0005V49.3344H18.2218V47.1116Z" fill="black"/>
<path d="M18.2218 44.8902H16.0005V47.1116H18.2218V44.8902Z" fill="black"/>
<path d="M18.2218 42.6673H16.0005V44.8902H18.2218V42.6673Z" fill="black"/>
<path d="M18.2218 40.4444H16.0005V42.6673H18.2218V40.4444Z" fill="black"/>
<path d="M18.2218 38.2231H16.0005V40.4444H18.2218V38.2231Z" fill="black"/>
<path d="M18.2218 36.0002H16.0005V38.2231H18.2218V36.0002Z" fill="black"/>
<path d="M18.2218 33.7789H16.0005V36.0002H18.2218V33.7789Z" fill="black"/>
<path d="M18.2218 31.556H16.0005V33.7789H18.2218V31.556Z" fill="black"/>
<path d="M18.2218 29.3347H16.0005V31.556H18.2218V29.3347Z" fill="black"/>
<path d="M18.2218 27.1118H16.0005V29.3347H18.2218V27.1118Z" fill="black"/>
<path d="M18.2218 24.8889H16.0005V27.1118H18.2218V24.8889Z" fill="black"/>
<path d="M18.2218 22.6676H16.0005V24.8889H18.2218V22.6676Z" fill="black"/>
<path d="M18.2218 20.4447H16.0005V22.6676H18.2218V20.4447Z" fill="black"/>
<path d="M18.2218 18.2233H16.0005V20.4447H18.2218V18.2233Z" fill="black"/>
<path d="M84.8883 93.7782H82.667V96.0011H84.8883V93.7782Z" fill="#F2E108"/>
<path d="M84.8883 87.1111H82.667V89.334H84.8883V87.1111Z" fill="#F2E108"/>
<path d="M84.8883 67.1113H82.667V69.3342H84.8883V67.1113Z" fill="#F2E108"/>
<path d="M82.6667 91.5569H80.4438V93.7782H82.6667V91.5569Z" fill="#F2E108"/>
<path d="M82.6667 80.4456H80.4438V82.6669H82.6667V80.4456Z" fill="#F2E108"/>
<path d="M80.444 71.5556H78.2227V73.7784H80.444V71.5556Z" fill="#F2E108"/>
<path d="M78.2229 87.1111H76V89.334H78.2229V87.1111Z" fill="#F2E108"/>
<path d="M75.9997 78.2227H73.7783V80.4456H75.9997V78.2227Z" fill="#F2E108"/>
<path d="M73.7786 89.334H71.5557V91.5569H73.7786V89.334Z" fill="#F2E108"/>
<path d="M71.5554 82.6669H69.3325V84.8898H71.5554V82.6669Z" fill="#F2E108"/>
<path d="M71.5554 71.5556H69.3325V73.7784H71.5554V71.5556Z" fill="#F2E108"/>
<path d="M69.3327 87.1111H67.1113V89.334H69.3327V87.1111Z" fill="#F2E108"/>
<path d="M67.1116 78.2227H64.8887V80.4456H67.1116V78.2227Z" fill="#F2E108"/>
<path d="M60.4445 82.6669H58.2231V84.8898H60.4445V82.6669Z" fill="#F2E108"/>
<path d="M60.4445 73.7785H58.2231V76.0013H60.4445V73.7785Z" fill="#F2E108"/>
<path d="M56.0002 80.4456H53.7773V82.6669H56.0002V80.4456Z" fill="#F2E108"/>
<path d="M56.0002 69.3342H53.7773V71.5556H56.0002V69.3342Z" fill="#F2E108"/>
<path d="M53.777 76.0013H51.5557V78.2227H53.777V76.0013Z" fill="#F2E108"/>
<path d="M49.3332 67.1113H47.1118V69.3342H49.3332V67.1113Z" fill="#F2E108"/>
<path d="M47.1116 78.2227H44.8887V80.4456H47.1116V78.2227Z" fill="#F2E108"/>
<path d="M47.1116 71.5556H44.8887V73.7784H47.1116V71.5556Z" fill="#F2E108"/>
<path d="M44.8888 73.7785H42.6675V76.0013H44.8888V73.7785Z" fill="#F2E108"/>
<path d="M40.4446 67.1113H38.2217V69.3342H40.4446V67.1113Z" fill="#F2E108"/>
<path d="M38.2218 73.7785H36.0005V76.0013H38.2218V73.7785Z" fill="#F2E108"/>
<path d="M33.7775 69.3342H31.5562V71.5556H33.7775V69.3342Z" fill="#F2E108"/>
<path d="M33.7775 58.2229H31.5562V60.4458H33.7775V58.2229Z" fill="#F2E108"/>
<path d="M29.3332 69.3342H27.1118V71.5556H29.3332V69.3342Z" fill="#F2E108"/>
<path d="M29.3332 64.89H27.1118V67.1113H29.3332V64.89Z" fill="#F2E108"/>
<path d="M24.8889 60.4458H22.666V62.6671H24.8889V60.4458Z" fill="#F2E108"/>
<path d="M22.6662 67.1113H20.4448V69.3342H22.6662V67.1113Z" fill="#F2E108"/>
</g>
<defs>
<linearGradient id="paint0_linear_5312_202634" x1="-4.49988" y1="16.0001" x2="71.0001" y2="83.0001" gradientUnits="userSpaceOnUse">
<stop stop-color="#F2E108"/>
<stop offset="1" stop-color="#FFBF3E"/>
</linearGradient>
<linearGradient id="paint1_linear_5312_202634" x1="-12.7712" y1="4.69556" x2="17.3017" y2="44.9101" gradientUnits="userSpaceOnUse">
<stop stop-color="#F2E108"/>
<stop offset="1" stop-color="#FFBF3E"/>
</linearGradient>
<clipPath id="clip0_5312_202634">
<rect width="112" height="112" fill="white"/>
</clipPath>
</defs>
</svg>
