<svg width="112" height="112" viewBox="0 0 112 112" fill="none" xmlns="http://www.w3.org/2000/svg">
<g clip-path="url(#clip0_5312_202178)">
<path d="M100.444 11.5562H11.5562V100.444H100.444V11.5562Z" fill="#D1D3D4"/>
<path d="M102.667 9.33333H100.444V11.5562H102.667V9.33333Z" fill="#A7A9AC"/>
<path d="M100.444 11.5562V13.7776V16.0004V18.2218V20.4447V22.666V24.8889V27.1118V29.3331V31.556V33.7773V36.0002V38.2216V40.4444V42.6673V44.8887V47.1116V49.3329V51.5558V53.7771V56V58.2229V60.4442V62.6671V64.8884V67.1113V69.3327V71.5556V73.7784V75.9998V78.2227V80.444V82.6669V84.8882V87.1111V89.334V91.5553V93.7782V95.9996V98.2225V100.444H98.2224H95.9995H93.7782H91.5553H89.3339H87.111H84.8882H82.6668H80.4439H78.2226H75.9997H73.7784H71.5555H69.3326H67.1113H64.8884H62.667H60.4442H58.2228H55.9999H53.777H51.5557H49.3328H47.1115H44.8886H42.6673H40.4444H38.2215H36.0002H33.7773H31.5559H29.333H27.1117H24.8888H22.6659H20.4446H18.2217H16.0004H13.7775H11.5562V102.667H13.7775H16.0004H18.2217H20.4446H22.6659H24.8888H27.1117H29.333H31.5559H33.7773H36.0002H38.2215H40.4444H42.6673H44.8886H47.1115H49.3328H51.5557H53.777H55.9999H58.2228H60.4442H62.667H64.8884H67.1113H69.3326H71.5555H73.7784H75.9997H78.2226H80.4439H82.6668H84.8882H87.111H89.3339H91.5553H93.7782H95.9995H98.2224H100.444H102.667V100.444V98.2225V95.9996V93.7782V91.5553V89.334V87.1111V84.8882V82.6669V80.444V78.2227V75.9998V73.7784V71.5556V69.3327V67.1113V64.8884V62.6671V60.4442V58.2229V56V53.7771V51.5558V49.3329V47.1116V44.8887V42.6673V40.4444V38.2216V36.0002V33.7773V31.556V29.3331V27.1118V24.8889V22.666V20.4447V18.2218V16.0004V13.7776V11.5562H100.444Z" fill="#808285"/>
<path d="M11.5559 100.444H9.33301V102.667H11.5559V100.444Z" fill="#A7A9AC"/>
<path d="M98.2221 9.33333H95.9992H93.7779H91.555H89.3337H87.1108H84.8879H82.6666H80.4437H78.2223H75.9995H73.7781H71.5552H69.3323H67.111H64.8881H62.6668H60.4439H58.2226H55.9997H53.7768H51.5555H49.3326H47.1112H44.8883H42.667H40.4441H38.2212H35.9999H33.777H31.5557H29.3328H27.1115H24.8886H22.6657H20.4443H18.2215H16.0001H13.7772H11.5559H9.33301V11.5562V13.7776V16.0004V18.2218V20.4447V22.666V24.8889V27.1118V29.3331V31.556V33.7773V36.0002V38.2216V40.4444V42.6673V44.8887V47.1116V49.3329V51.5558V53.7771V56V58.2229V60.4442V62.6671V64.8884V67.1113V69.3327V71.5556V73.7784V75.9998V78.2227V80.444V82.6669V84.8882V87.1111V89.334V91.5553V93.7782V95.9996V98.2224V100.444H11.5559V98.2224V95.9996V93.7782V91.5553V89.334V87.1111V84.8882V82.6669V80.444V78.2227V75.9998V73.7784V71.5556V69.3327V67.1113V64.8884V62.6671V60.4442V58.2229V56V53.7771V51.5558V49.3329V47.1116V44.8887V42.6673V40.4444V38.2216V36.0002V33.7773V31.556V29.3331V27.1118V24.8889V22.666V20.4447V18.2218V16.0004V13.7776V11.5562H13.7772H16.0001H18.2215H20.4443H22.6657H24.8886H27.1115H29.3328H31.5557H33.777H35.9999H38.2212H40.4441H42.667H44.8883H47.1112H49.3326H51.5555H53.7768H55.9997H58.2226H60.4439H62.6668H64.8881H67.111H69.3323H71.5552H73.7781H75.9995H78.2223H80.4437H82.6666H84.8879H87.1108H89.3337H91.555H93.7779H95.9992H98.2221H100.443V9.33333H98.2221Z" fill="white"/>
<path d="M102.667 9.33333V11.5562V13.7776V16.0004V18.2218V20.4447V22.666V24.8889V27.1118V29.3331V31.556V33.7773V36.0002V38.2216V40.4444V42.6673V44.8887V47.1116V49.3329V51.5558V53.7771V56V58.2229V60.4442V62.6671V64.8884V67.1113V69.3327V71.5556V73.7784V75.9998V78.2227V80.444V82.6669V84.8882V87.1111V89.334V91.5553V93.7782V95.9996V98.2224V100.444V102.667H100.444H98.2224H95.9995H93.7781H91.5552H89.3339H87.111H84.8881H82.6668H80.4439H78.2226H75.9997H73.7784H71.5555H69.3326H67.1112H64.8884H62.667H60.4441H58.2228H55.9999H53.777H51.5557H49.3328H47.1115H44.8886H42.6672H40.4444H38.2215H36.0001H33.7772H31.5559H29.333H27.1117H24.8888H22.6659H20.4446H18.2217H16.0004H13.7775H11.5561H9.33324H7.11035V104.89H9.33324H11.5561H13.7775H16.0004H18.2217H20.4446H22.6659H24.8888H27.1117H29.333H31.5559H33.7772H36.0001H38.2215H40.4444H42.6672H44.8886H47.1115H49.3328H51.5557H53.777H55.9999H58.2228H60.4441H62.667H64.8884H67.1112H69.3326H71.5555H73.7784H75.9997H78.2226H80.4439H82.6668H84.8881H87.111H89.3339H91.5552H93.7781H95.9995H98.2224H100.444H102.667H104.889V102.667V100.444V98.2224V95.9996V93.7782V91.5553V89.334V87.1111V84.8882V82.6669V80.444V78.2227V75.9998V73.7784V71.5556V69.3327V67.1113V64.8884V62.6671V60.4442V58.2229V56V53.7771V51.5558V49.3329V47.1116V44.8887V42.6673V40.4444V38.2216V36.0002V33.7773V31.556V29.3331V27.1118V24.8889V22.666V20.4447V18.2218V16.0004V13.7776V11.5562V9.33333H102.667Z" fill="black"/>
<path d="M102.667 7.11044H100.444H98.2224H95.9995H93.7781H91.5552H89.3339H87.111H84.8881H82.6668H80.4439H78.2226H75.9997H73.7784H71.5555H69.3326H67.1112H64.8884H62.667H60.4441H58.2228H55.9999H53.777H51.5557H49.3328H47.1115H44.8886H42.6672H40.4444H38.2215H36.0001H33.7772H31.5559H29.333H27.1117H24.8888H22.6659H20.4446H18.2217H16.0004H13.7775H11.5561H9.33324H7.11035V9.33333V11.5562V13.7776V16.0004V18.2218V20.4447V22.666V24.8889V27.1118V29.3331V31.556V33.7773V36.0002V38.2216V40.4444V42.6673V44.8887V47.1116V49.3329V51.5558V53.7771V56V58.2229V60.4442V62.6671V64.8885V67.1113V69.3327V71.5556V73.7785V75.9998V78.2227V80.444V82.6669V84.8882V87.1111V89.334V91.5553V93.7782V95.9996V98.2224V100.444V102.667H9.33324V100.444V98.2224V95.9996V93.7782V91.5553V89.334V87.1111V84.8882V82.6669V80.444V78.2227V75.9998V73.7785V71.5556V69.3327V67.1113V64.8885V62.6671V60.4442V58.2229V56V53.7771V51.5558V49.3329V47.1116V44.8887V42.6673V40.4444V38.2216V36.0002V33.7773V31.556V29.3331V27.1118V24.8889V22.666V20.4447V18.2218V16.0004V13.7776V11.5562V9.33333H11.5561H13.7775H16.0004H18.2217H20.4446H22.6659H24.8888H27.1117H29.333H31.5559H33.7772H36.0001H38.2215H40.4444H42.6672H44.8886H47.1115H49.3328H51.5557H53.777H55.9999H58.2228H60.4441H62.667H64.8884H67.1112H69.3326H71.5555H73.7784H75.9997H78.2226H80.4439H82.6668H84.8881H87.111H89.3339H91.5552H93.7781H95.9995H98.2224H100.444H102.667H104.889V7.11044H102.667Z" fill="#58595B"/>
<path d="M80.4479 73.7738H78.2266V75.9967H80.4479V73.7738Z" fill="#2B6991"/>
<path d="M80.4479 71.5509H78.2266V73.7738H80.4479V71.5509Z" fill="#2B6991"/>
<path d="M80.4479 69.3296H78.2266V71.5509H80.4479V69.3296Z" fill="#2B6991"/>
<path d="M80.4479 67.1067H78.2266V69.3296H80.4479V67.1067Z" fill="#2B6991"/>
<path d="M80.4479 64.8853H78.2266V67.1067H80.4479V64.8853Z" fill="#2B6991"/>
<path d="M80.4479 62.6624H78.2266V64.8853H80.4479V62.6624Z" fill="#2B6991"/>
<path d="M80.4479 60.4411H78.2266V62.6624H80.4479V60.4411Z" fill="#2B6991"/>
<path d="M80.4479 58.2182H78.2266V60.4411H80.4479V58.2182Z" fill="#2B6991"/>
<path d="M80.4479 55.9953H78.2266V58.2182H80.4479V55.9953Z" fill="#2B6991"/>
<path d="M80.4479 53.774H78.2266V55.9953H80.4479V53.774Z" fill="#2B6991"/>
<path d="M80.4479 51.5511H78.2266V53.774H80.4479V51.5511Z" fill="#2B6991"/>
<path d="M80.4479 49.3298H78.2266V51.5511H80.4479V49.3298Z" fill="#2B6991"/>
<path d="M80.4479 47.1069H78.2266V49.3298H80.4479V47.1069Z" fill="#2B6991"/>
<path d="M80.4479 44.8856H78.2266V47.1069H80.4479V44.8856Z" fill="#2B6991"/>
<path d="M80.4479 42.6627H78.2266V44.8856H80.4479V42.6627Z" fill="#2B6991"/>
<path d="M80.4479 40.4398H78.2266V42.6627H80.4479V40.4398Z" fill="#2B6991"/>
<path d="M80.4479 38.2184H78.2266V40.4398H80.4479V38.2184Z" fill="#2B6991"/>
<path d="M80.4479 35.9956H78.2266V38.2184H80.4479V35.9956Z" fill="#2B6991"/>
<path d="M80.4479 33.7742H78.2266V35.9956H80.4479V33.7742Z" fill="#2B6991"/>
<path d="M80.4479 31.5513H78.2266V33.7742H80.4479V31.5513Z" fill="#2B6991"/>
<path d="M80.4479 29.33H78.2266V31.5513H80.4479V29.33Z" fill="#2B6991"/>
<path d="M80.4479 27.1071H78.2266V29.33H80.4479V27.1071Z" fill="#2B6991"/>
<path d="M80.4479 24.8842H78.2266V27.1071H80.4479V24.8842Z" fill="#2B6991"/>
<path d="M80.4479 22.6629H78.2266V24.8842H80.4479V22.6629Z" fill="#2B6991"/>
<path d="M80.4479 20.44H78.2266V22.6629H80.4479V20.44Z" fill="#5BBCDB"/>
<path d="M78.2268 75.9967H76.0039V78.218H78.2268V75.9967Z" fill="#2B6991"/>
<path d="M78.2268 20.44H76.0039V22.6629H78.2268V20.44Z" fill="#5BBCDB"/>
<path d="M76.0036 78.218H73.7808V80.4409H76.0036V78.218Z" fill="#2B6991"/>
<path d="M76.0036 62.6624H73.7808V64.8853H76.0036V62.6624Z" fill="#5BBCDB"/>
<path d="M76.0036 60.4411H73.7808V62.6624H76.0036V60.4411Z" fill="#5BBCDB"/>
<path d="M76.0036 58.2182H73.7808V60.4411H76.0036V58.2182Z" fill="#5BBCDB"/>
<path d="M76.0036 55.9953H73.7808V58.2182H76.0036V55.9953Z" fill="#5BBCDB"/>
<path d="M76.0036 53.774H73.7808V55.9953H76.0036V53.774Z" fill="#5BBCDB"/>
<path d="M76.0036 51.5511H73.7808V53.774H76.0036V51.5511Z" fill="#5BBCDB"/>
<path d="M76.0036 49.3298H73.7808V51.5511H76.0036V49.3298Z" fill="#5BBCDB"/>
<path d="M76.0036 47.1069H73.7808V49.3298H76.0036V47.1069Z" fill="#5BBCDB"/>
<path d="M76.0036 44.8856H73.7808V47.1069H76.0036V44.8856Z" fill="#5BBCDB"/>
<path d="M76.0036 42.6627H73.7808V44.8856H76.0036V42.6627Z" fill="#5BBCDB"/>
<path d="M76.0036 40.4398H73.7808V42.6627H76.0036V40.4398Z" fill="#5BBCDB"/>
<path d="M76.0036 35.9956H73.7808V38.2184H76.0036V35.9956Z" fill="#2B6991"/>
<path d="M76.0036 29.33H73.7808V31.5513H76.0036V29.33Z" fill="#5BBCDB"/>
<path d="M76.0036 20.44H73.7808V22.6629H76.0036V20.44Z" fill="#5BBCDB"/>
<path d="M73.7809 78.218H71.5596V80.4409H73.7809V78.218Z" fill="#2B6991"/>
<path d="M73.7809 69.3296H71.5596V71.5509H73.7809V69.3296Z" fill="#5BBCDB"/>
<path d="M73.7809 64.8853H71.5596V67.1067H73.7809V64.8853Z" fill="#5BBCDB"/>
<path d="M73.7809 35.9956H71.5596V38.2184H73.7809V35.9956Z" fill="#2B6991"/>
<path d="M73.7809 22.6629H71.5596V24.8842H73.7809V22.6629Z" fill="#5BBCDB"/>
<path d="M71.5593 80.4409H69.3364V82.6622H71.5593V80.4409Z" fill="#2B6991"/>
<path d="M71.5593 64.8853H69.3364V67.1067H71.5593V64.8853Z" fill="#5BBCDB"/>
<path d="M71.5593 35.9956H69.3364V38.2184H71.5593V35.9956Z" fill="#2B6991"/>
<path d="M71.5593 22.6629H69.3364V24.8842H71.5593V22.6629Z" fill="#5BBCDB"/>
<path d="M69.3366 80.4409H67.1152V82.6622H69.3366V80.4409Z" fill="#2B6991"/>
<path d="M69.3366 73.7738H67.1152V75.9967H69.3366V73.7738Z" fill="#5BBCDB"/>
<path d="M69.3366 64.8853H67.1152V67.1067H69.3366V64.8853Z" fill="#5BBCDB"/>
<path d="M69.3366 38.2184H67.1152V40.4398H69.3366V38.2184Z" fill="#2B6991"/>
<path d="M69.3366 22.6629H67.1152V24.8842H69.3366V22.6629Z" fill="#5BBCDB"/>
<path d="M67.1155 80.4409H64.8926V82.6622H67.1155V80.4409Z" fill="#2B6991"/>
<path d="M67.1155 67.1067H64.8926V69.3296H67.1155V67.1067Z" fill="#5BBCDB"/>
<path d="M67.1155 38.2184H64.8926V40.4398H67.1155V38.2184Z" fill="#2B6991"/>
<path d="M67.1155 29.33H64.8926V31.5513H67.1155V29.33Z" fill="#5BBCDB"/>
<path d="M67.1155 22.6629H64.8926V24.8842H67.1155V22.6629Z" fill="#5BBCDB"/>
<path d="M64.8922 78.218H62.6709V80.4409H64.8922V78.218Z" fill="#2B6991"/>
<path d="M64.8922 67.1067H62.6709V69.3296H64.8922V67.1067Z" fill="#5BBCDB"/>
<path d="M64.8922 38.2184H62.6709V40.4398H64.8922V38.2184Z" fill="#2B6991"/>
<path d="M64.8922 31.5513H62.6709V33.7742H64.8922V31.5513Z" fill="#5BBCDB"/>
<path d="M64.8922 22.6629H62.6709V24.8842H64.8922V22.6629Z" fill="#5BBCDB"/>
<path d="M62.6711 78.218H60.4482V80.4409H62.6711V78.218Z" fill="#2B6991"/>
<path d="M62.6711 69.3296H60.4482V71.5509H62.6711V69.3296Z" fill="#5BBCDB"/>
<path d="M62.6711 38.2184H60.4482V40.4398H62.6711V38.2184Z" fill="#2B6991"/>
<path d="M62.6711 22.6629H60.4482V24.8842H62.6711V22.6629Z" fill="#5BBCDB"/>
<path d="M60.448 73.7738H58.2251V75.9967H60.448V73.7738Z" fill="#5BBCDB"/>
<path d="M60.448 71.5509H58.2251V73.7738H60.448V71.5509Z" fill="#5BBCDB"/>
<path d="M60.448 38.2184H58.2251V40.4398H60.448V38.2184Z" fill="#2B6991"/>
<path d="M60.448 22.6629H58.2251V24.8842H60.448V22.6629Z" fill="#5BBCDB"/>
<path d="M58.2252 38.2184H56.0039V40.4398H58.2252V38.2184Z" fill="#2B6991"/>
<path d="M58.2252 24.8842H56.0039V27.1071H58.2252V24.8842Z" fill="#5BBCDB"/>
<path d="M56.0041 38.2184H53.7812V40.4398H56.0041V38.2184Z" fill="#2B6991"/>
<path d="M56.0041 24.8842H53.7812V27.1071H56.0041V24.8842Z" fill="#5BBCDB"/>
<path d="M53.7809 40.4398H51.5596V42.6627H53.7809V40.4398Z" fill="#2B6991"/>
<path d="M53.7809 24.8842H51.5596V27.1071H53.7809V24.8842Z" fill="#5BBCDB"/>
<path d="M51.5598 40.4398H49.3369V42.6627H51.5598V40.4398Z" fill="#2B6991"/>
<path d="M51.5598 31.5513H49.3369V33.7742H51.5598V31.5513Z" fill="#5BBCDB"/>
<path d="M51.5598 24.8842H49.3369V27.1071H51.5598V24.8842Z" fill="#5BBCDB"/>
<path d="M49.3366 40.4398H47.1152V42.6627H49.3366V40.4398Z" fill="#2B6991"/>
<path d="M49.3366 24.8842H47.1152V27.1071H49.3366V24.8842Z" fill="#5BBCDB"/>
<path d="M47.1155 40.4398H44.8926V42.6627H47.1155V40.4398Z" fill="#2B6991"/>
<path d="M47.1155 24.8842H44.8926V27.1071H47.1155V24.8842Z" fill="#5BBCDB"/>
<path d="M44.8928 78.218H42.6699V80.4409H44.8928V78.218Z" fill="#2B6991"/>
<path d="M44.8928 75.9967H42.6699V78.218H44.8928V75.9967Z" fill="#2B6991"/>
<path d="M44.8928 73.7738H42.6699V75.9967H44.8928V73.7738Z" fill="#2B6991"/>
<path d="M44.8928 71.5509H42.6699V73.7738H44.8928V71.5509Z" fill="#2B6991"/>
<path d="M44.8928 69.3296H42.6699V71.5509H44.8928V69.3296Z" fill="#2B6991"/>
<path d="M44.8928 67.1067H42.6699V69.3296H44.8928V67.1067Z" fill="#2B6991"/>
<path d="M44.8928 64.8853H42.6699V67.1067H44.8928V64.8853Z" fill="#2B6991"/>
<path d="M44.8928 62.6624H42.6699V64.8853H44.8928V62.6624Z" fill="#2B6991"/>
<path d="M44.8928 60.4411H42.6699V62.6624H44.8928V60.4411Z" fill="#2B6991"/>
<path d="M44.8928 58.2182H42.6699V60.4411H44.8928V58.2182Z" fill="#2B6991"/>
<path d="M44.8928 55.9953H42.6699V58.2182H44.8928V55.9953Z" fill="#2B6991"/>
<path d="M44.8928 53.774H42.6699V55.9953H44.8928V53.774Z" fill="#2B6991"/>
<path d="M44.8928 51.5511H42.6699V53.774H44.8928V51.5511Z" fill="#2B6991"/>
<path d="M44.8928 49.3298H42.6699V51.5511H44.8928V49.3298Z" fill="#2B6991"/>
<path d="M44.8928 47.1069H42.6699V49.3298H44.8928V47.1069Z" fill="#2B6991"/>
<path d="M44.8928 44.8856H42.6699V47.1069H44.8928V44.8856Z" fill="#2B6991"/>
<path d="M44.8928 42.6627H42.6699V44.8856H44.8928V42.6627Z" fill="#2B6991"/>
<path d="M44.8928 40.4398H42.6699V42.6627H44.8928V40.4398Z" fill="#2B6991"/>
<path d="M44.8928 27.1071H42.6699V29.33H44.8928V27.1071Z" fill="#5BBCDB"/>
<path d="M42.6696 80.4409H40.4482V82.6622H42.6696V80.4409Z" fill="#2B6991"/>
<path d="M42.6696 27.1071H40.4482V29.33H42.6696V27.1071Z" fill="#5BBCDB"/>
<path d="M40.4485 82.6622H38.2256V84.8851H40.4485V82.6622Z" fill="#2B6991"/>
<path d="M40.4485 73.7738H38.2256V75.9967H40.4485V73.7738Z" fill="#5BBCDB"/>
<path d="M40.4485 67.1067H38.2256V69.3296H40.4485V67.1067Z" fill="#5BBCDB"/>
<path d="M40.4485 64.8853H38.2256V67.1067H40.4485V64.8853Z" fill="#5BBCDB"/>
<path d="M40.4485 62.6624H38.2256V64.8853H40.4485V62.6624Z" fill="#5BBCDB"/>
<path d="M40.4485 60.4411H38.2256V62.6624H40.4485V60.4411Z" fill="#5BBCDB"/>
<path d="M40.4485 58.2182H38.2256V60.4411H40.4485V58.2182Z" fill="#5BBCDB"/>
<path d="M40.4485 55.9953H38.2256V58.2182H40.4485V55.9953Z" fill="#5BBCDB"/>
<path d="M40.4485 53.774H38.2256V55.9953H40.4485V53.774Z" fill="#5BBCDB"/>
<path d="M40.4485 51.5511H38.2256V53.774H40.4485V51.5511Z" fill="#5BBCDB"/>
<path d="M40.4485 49.3298H38.2256V51.5511H40.4485V49.3298Z" fill="#5BBCDB"/>
<path d="M40.4485 47.1069H38.2256V49.3298H40.4485V47.1069Z" fill="#5BBCDB"/>
<path d="M40.4485 44.8856H38.2256V47.1069H40.4485V44.8856Z" fill="#5BBCDB"/>
<path d="M40.4485 42.6627H38.2256V44.8856H40.4485V42.6627Z" fill="#5BBCDB"/>
<path d="M40.4485 40.4398H38.2256V42.6627H40.4485V40.4398Z" fill="#5BBCDB"/>
<path d="M40.4485 38.2184H38.2256V40.4398H40.4485V38.2184Z" fill="#5BBCDB"/>
<path d="M40.4485 35.9956H38.2256V38.2184H40.4485V35.9956Z" fill="#5BBCDB"/>
<path d="M40.4485 33.7742H38.2256V35.9956H40.4485V33.7742Z" fill="#5BBCDB"/>
<path d="M40.4485 31.5513H38.2256V33.7742H40.4485V31.5513Z" fill="#5BBCDB"/>
<path d="M40.4485 29.33H38.2256V31.5513H40.4485V29.33Z" fill="#5BBCDB"/>
<path d="M40.4485 27.1071H38.2256V29.33H40.4485V27.1071Z" fill="#5BBCDB"/>
<path d="M38.2252 82.6622H36.0039V84.8851H38.2252V82.6622Z" fill="#2B6991"/>
<path d="M38.2252 69.3296H36.0039V71.5509H38.2252V69.3296Z" fill="#5BBCDB"/>
<path d="M36.0041 84.8851H33.7812V87.1064H36.0041V84.8851Z" fill="#2B6991"/>
<path d="M36.0041 78.218H33.7812V80.4409H36.0041V78.218Z" fill="#5BBCDB"/>
<path d="M36.0041 69.3296H33.7812V71.5509H36.0041V69.3296Z" fill="#5BBCDB"/>
<path d="M33.7814 84.8851H31.5601V87.1064H33.7814V84.8851Z" fill="#2B6991"/>
<path d="M33.7814 69.3296H31.5601V71.5509H33.7814V69.3296Z" fill="#5BBCDB"/>
<path d="M31.5598 84.8851H29.3369V87.1064H31.5598V84.8851Z" fill="#2B6991"/>
<path d="M31.5598 71.5509H29.3369V73.7738H31.5598V71.5509Z" fill="#5BBCDB"/>
<path d="M29.3371 82.6622H27.1143V84.8851H29.3371V82.6622Z" fill="#2B6991"/>
<path d="M29.3371 71.5509H27.1143V73.7738H29.3371V71.5509Z" fill="#5BBCDB"/>
<path d="M27.1139 82.6622H24.8926V84.8851H27.1139V82.6622Z" fill="#2B6991"/>
<path d="M76.0035 22.6629H73.7806V24.8842H58.225V27.1071H44.8924V29.33H40.4481V69.3296H38.2252V71.5509H31.5597V73.7738H27.1139V75.9967H24.8926V82.6622H29.3368V84.8851H36.0039V82.6622H40.4481V80.4409H42.6695V40.4398H53.7808V38.2184H69.3364V35.9956H76.0035V64.8853H73.7806V67.1067H67.115V69.3296H62.6708V71.5509H60.4479V78.218H64.8921V80.4409H71.5592V78.218H76.0035V75.9967H78.2264V22.6629H76.0035ZM33.781 80.4409V78.218H36.0039V80.4409H33.781ZM40.4481 75.9967H38.2252V73.7738H40.4481V75.9967ZM73.7806 69.3296V71.5509H71.5592V69.3296H73.7806ZM69.3364 75.9967H67.115V73.7738H69.3364V75.9967ZM64.8921 31.5513V33.7742H62.6708V31.5513H64.8921V29.33H67.115V31.5513H64.8921ZM49.3366 33.7742V31.5513H51.5595V33.7742H49.3366ZM76.0035 31.5513H73.7806V29.33H76.0035V31.5513Z" fill="url(#paint0_linear_5312_202178)"/>
<path d="M27.1139 73.7738H24.8926V75.9967H27.1139V73.7738Z" fill="#5BBCDB"/>
<path d="M80.4479 75.9967H78.2266V78.218H80.4479V75.9967Z" fill="black"/>
<path d="M78.2268 78.218H76.0039V80.4409H78.2268V78.218Z" fill="black"/>
<path d="M71.5596 80.4409V82.6622H73.7809H76.0038V80.4409H73.7809H71.5596Z" fill="black"/>
<path d="M73.7806 40.4398H76.0035V38.2184H73.7806H71.5593H69.3364V40.4398H71.5593H73.7806Z" fill="black"/>
<path d="M67.1155 82.6622H64.8926V84.8851H67.1155H69.3368H71.5597V82.6622H69.3368H67.1155Z" fill="black"/>
<path d="M62.6711 80.4409H60.4482V82.6622H62.6711H64.8925V80.4409H62.6711Z" fill="black"/>
<path d="M60.448 75.9967H58.2251V78.218H60.448V75.9967Z" fill="black"/>
<path d="M60.4484 42.6627H62.6712H64.8926H67.1155H69.3368V40.4398H67.1155H64.8926H62.6712H60.4484H58.2255H56.0041H53.7812V42.6627H56.0041H58.2255H60.4484Z" fill="black"/>
<path d="M49.3368 42.6627H47.1155H44.8926V44.8856H47.1155H49.3368H51.5597H53.781V42.6627H51.5597H49.3368Z" fill="black"/>
<path d="M44.8928 80.4409H42.6699V82.6622H44.8928V80.4409Z" fill="black"/>
<path d="M42.6696 82.6622H40.4482V84.8851H42.6696V82.6622Z" fill="black"/>
<path d="M36.0039 84.8851V87.1064H38.2252H40.4481V84.8851H38.2252H36.0039Z" fill="black"/>
<path d="M31.5598 87.1064H29.3369V89.3293H31.5598H33.7811H36.004V87.1064H33.7811H31.5598Z" fill="black"/>
<path d="M27.1139 84.8851H24.8926V87.1064H27.1139H29.3368V84.8851H27.1139Z" fill="black"/>
<path d="M24.8928 80.4409H22.6699V82.6622H24.8928V80.4409Z" fill="black"/>
<path d="M24.8928 78.218H22.6699V80.4409H24.8928V78.218Z" fill="#5BBCDB"/>
<path d="M24.8928 75.9967H22.6699V78.218H24.8928V75.9967Z" fill="#5BBCDB"/>
</g>
<defs>
<linearGradient id="paint0_linear_5312_202178" x1="51.9997" y1="3.00005" x2="51.9997" y2="85.0001" gradientUnits="userSpaceOnUse">
<stop stop-color="#5BBCDB"/>
<stop offset="1" stop-color="#1E93D0"/>
</linearGradient>
<clipPath id="clip0_5312_202178">
<rect width="112" height="112" fill="white"/>
</clipPath>
</defs>
</svg>
