<svg width="112" height="112" viewBox="0 0 112 112" fill="none" xmlns="http://www.w3.org/2000/svg">
<g clip-path="url(#clip0_5312_204977)">
<path d="M84.8881 58.2229V51.5558H82.6668V47.1116H80.4439V42.6673H78.2226V40.4445H75.9997V36.0002H73.7783V33.7773H69.3326V31.556H67.1112V29.3331H64.8883V31.556H62.667V29.3331H64.8883V27.1118H62.667V24.8889H60.4441V27.1118H58.2228V24.8889H55.9999V27.1118H53.777V24.8889H51.5557V22.666H49.3328V24.8889H47.1115V27.1118H44.8886V29.3331H42.6672V27.1118H40.4443V24.8889H42.6672V27.1118H44.8886V24.8889H47.1115V22.666H44.8886V20.4447H42.6672V22.666H40.4443V18.2218H38.2215V22.666H36.0001V24.8889H38.2215V27.1118H36.0001V24.8889H33.7772V27.1118H31.5559V33.7773H33.7772V36.0002H31.5559V38.2216H29.333V40.4445H31.5559V42.6673H29.333V44.8887H31.5559V53.7771H33.7772V51.5558H36.0001V53.7771H33.7772V60.4442H36.0001V64.8885H38.2215V69.3327H40.4443V73.7785H42.6672V75.9998H44.8886V78.2227H47.1115V82.6669H51.5557V84.8882H53.777V87.1111H55.9999V89.334H58.2228V91.5553H62.667V75.9998H55.9999V73.7785H53.777V71.5556H51.5557V69.3327H49.3328V67.1113H47.1115V64.8885H44.8886V58.2229H42.6672V53.7771H40.4443V40.4445H42.6672V38.2216H49.3328V40.4445H53.777V42.6673H55.9999V44.8887H58.2228V47.1116H60.4441V49.3329H62.667V53.7771H64.8883V56H67.1112V60.4442H87.111V58.2229H84.8881ZM69.3326 51.5558H71.5555V53.7771H69.3326V51.5558ZM62.667 38.2216H60.4441V36.0002H62.667V38.2216ZM64.8883 40.4445H67.1112V42.6673H64.8883V40.4445ZM73.7783 44.8887H71.5555V42.6673H73.7783V44.8887ZM78.2226 53.7771H80.4439V56H78.2226V53.7771ZM78.2226 49.3329H75.9997V47.1116H78.2226V49.3329ZM67.1112 33.7773V36.0002H69.3326V38.2216H67.1112V36.0002H64.8883V33.7773H67.1112ZM58.2228 29.3331V31.556H55.9999V33.7773H53.777V31.556H55.9999V29.3331H58.2228ZM51.5557 27.1118V29.3331H49.3328V27.1118H51.5557ZM40.4443 33.7773H38.2215V31.556H40.4443V33.7773ZM33.7772 29.3331H36.0001V31.556H33.7772V29.3331ZM38.2215 36.0002V38.2216H36.0001V36.0002H38.2215ZM38.2215 60.4442H40.4443V62.6671H38.2215V60.4442ZM60.4441 87.1111H58.2228V84.8882H60.4441V87.1111ZM55.9999 80.444H53.777V78.2227H55.9999V80.444ZM47.1115 71.5556H44.8886V69.3327H47.1115V71.5556ZM38.2215 44.8887H36.0001V47.1116H33.7772V44.8887H36.0001V42.6673H38.2215V44.8887ZM42.6672 36.0002V33.7773H44.8886V36.0002H42.6672ZM49.3328 33.7773H51.5557V36.0002H49.3328V33.7773ZM53.777 36.0002H55.9999V38.2216H53.777V36.0002ZM60.4441 42.6673H62.667V44.8887H60.4441V42.6673ZM64.8883 47.1116H67.1112V49.3329H64.8883V47.1116Z" fill="url(#paint0_linear_5312_204977)"/>
<path d="M60.4442 22.666H58.2229V24.8889H60.4442V22.666Z" fill="#808285"/>
<path d="M58.2229 20.4447H56V22.666H58.2229V20.4447Z" fill="#808285"/>
<path d="M56 22.666H53.7771V24.8889H56V22.666Z" fill="#808285"/>
<path d="M53.777 20.4447H51.5557V22.666H53.777V20.4447Z" fill="#808285"/>
<path d="M51.5556 18.2218H49.3328V20.4447H51.5556V18.2218Z" fill="#808285"/>
<path d="M49.3327 20.4447H47.1113V22.666H49.3327V20.4447Z" fill="#808285"/>
<path d="M47.1116 18.2218H44.8887V20.4447H47.1116V18.2218Z" fill="#808285"/>
<path d="M36.0002 20.4447H33.7773V22.666H36.0002V20.4447Z" fill="#808285"/>
<path d="M31.5559 33.7773H29.333V36.0002H31.5559V33.7773Z" fill="#808285"/>
<path d="M91.5553 82.6669H89.334V84.8882H91.5553V82.6669Z" fill="#58595B"/>
<path d="M91.5553 80.444H89.334V82.6669H91.5553V80.444Z" fill="#58595B"/>
<path d="M91.5553 78.2227H89.334V80.444H91.5553V78.2227Z" fill="#58595B"/>
<path d="M91.5553 75.9998H89.334V78.2227H91.5553V75.9998Z" fill="black"/>
<path d="M91.5553 73.7785H89.334V75.9998H91.5553V73.7785Z" fill="black"/>
<path d="M91.5553 71.5556H89.334V73.7784H91.5553V71.5556Z" fill="black"/>
<path d="M91.5553 69.3327H89.334V71.5556H91.5553V69.3327Z" fill="black"/>
<path d="M91.5553 67.1113H89.334V69.3327H91.5553V67.1113Z" fill="black"/>
<path d="M91.5553 64.8885H89.334V67.1113H91.5553V64.8885Z" fill="black"/>
<path d="M91.5553 62.6671H89.334V64.8885H91.5553V62.6671Z" fill="#58595B"/>
<path d="M89.334 91.5553H87.1111V93.7782H89.334V91.5553Z" fill="#58595B"/>
<path d="M89.334 89.334H87.1111V91.5553H89.334V89.334Z" fill="black"/>
<path d="M89.334 87.1111H87.1111V89.334H89.334V87.1111Z" fill="black"/>
<path d="M89.334 84.8882H87.1111V87.1111H89.334V84.8882Z" fill="black"/>
<path d="M89.334 82.6669H87.1111V84.8882H89.334V82.6669Z" fill="black"/>
<path d="M89.334 80.444H87.1111V82.6669H89.334V80.444Z" fill="black"/>
<path d="M89.334 78.2227H87.1111V80.444H89.334V78.2227Z" fill="black"/>
<path d="M89.334 75.9998H87.1111V78.2227H89.334V75.9998Z" fill="#58595B"/>
<path d="M89.334 73.7785H87.1111V75.9998H89.334V73.7785Z" fill="#58595B"/>
<path d="M89.334 71.5556H87.1111V73.7784H89.334V71.5556Z" fill="#58595B"/>
<path d="M89.334 69.3327H87.1111V71.5556H89.334V69.3327Z" fill="#58595B"/>
<path d="M89.334 67.1113H87.1111V69.3327H89.334V67.1113Z" fill="#58595B"/>
<path d="M89.334 64.8885H87.1111V67.1113H89.334V64.8885Z" fill="#58595B"/>
<path d="M89.334 62.6671H87.1111V64.8885H89.334V62.6671Z" fill="black"/>
<path d="M89.334 60.4442H87.1111V62.6671H89.334V60.4442Z" fill="black"/>
<path d="M89.334 58.2229H87.1111V60.4442H89.334V58.2229Z" fill="black"/>
<path d="M89.334 56H87.1111V58.2229H89.334V56Z" fill="black"/>
<path d="M89.334 53.7771H87.1111V56H89.334V53.7771Z" fill="#58595B"/>
<path d="M87.1111 93.7782H84.8882V95.9996H87.1111V93.7782Z" fill="#58595B"/>
<path d="M87.1111 91.5553H84.8882V93.7782H87.1111V91.5553Z" fill="black"/>
<path d="M87.1111 89.334H84.8882V91.5553H87.1111V89.334Z" fill="#58595B"/>
<path d="M87.1111 82.6669H84.8882V84.8882H87.1111V82.6669Z" fill="white"/>
<path d="M87.1111 80.444H84.8882V82.6669H87.1111V80.444Z" fill="white"/>
<path d="M87.1111 78.2227H84.8882V80.444H87.1111V78.2227Z" fill="white"/>
<path d="M87.1111 75.9998H84.8882V78.2227H87.1111V75.9998Z" fill="#D1D3D4"/>
<path d="M87.1111 73.7785H84.8882V75.9998H87.1111V73.7785Z" fill="#D1D3D4"/>
<path d="M87.1111 71.5556H84.8882V73.7784H87.1111V71.5556Z" fill="#D1D3D4"/>
<path d="M87.1111 69.3327H84.8882V71.5556H87.1111V69.3327Z" fill="#D1D3D4"/>
<path d="M87.1111 67.1113H84.8882V69.3327H87.1111V67.1113Z" fill="#D1D3D4"/>
<path d="M87.1111 62.6671H84.8882V64.8885H87.1111V62.6671Z" fill="#D1D3D4"/>
<path d="M87.1111 56H84.8882V58.2229H87.1111V56Z" fill="#58595B"/>
<path d="M87.1111 53.7771H84.8882V56H87.1111V53.7771Z" fill="black"/>
<path d="M87.1111 51.5558H84.8882V53.7771H87.1111V51.5558Z" fill="black"/>
<path d="M87.1111 49.3329H84.8882V51.5558H87.1111V49.3329Z" fill="black"/>
<path d="M87.1111 47.1116H84.8882V49.3329H87.1111V47.1116Z" fill="#58595B"/>
<path d="M84.8881 95.9996H82.6667V98.2225H84.8881V95.9996Z" fill="#58595B"/>
<path d="M84.8881 93.7782H82.6667V95.9996H84.8881V93.7782Z" fill="black"/>
<path d="M84.8881 91.5553H82.6667V93.7782H84.8881V91.5553Z" fill="#58595B"/>
<path d="M84.8881 89.334H82.6667V91.5553H84.8881V89.334Z" fill="white"/>
<path d="M84.8881 87.1111H82.6667V89.334H84.8881V87.1111Z" fill="white"/>
<path d="M84.8881 84.8882H82.6667V87.1111H84.8881V84.8882Z" fill="white"/>
<path d="M84.8881 82.6669H82.6667V84.8882H84.8881V82.6669Z" fill="white"/>
<path d="M84.8881 80.444H82.6667V82.6669H84.8881V80.444Z" fill="white"/>
<path d="M84.8881 78.2227H82.6667V80.444H84.8881V78.2227Z" fill="white"/>
<path d="M84.8881 75.9998H82.6667V78.2227H84.8881V75.9998Z" fill="white"/>
<path d="M84.8881 73.7785H82.6667V75.9998H84.8881V73.7785Z" fill="#D1D3D4"/>
<path d="M84.8881 71.5556H82.6667V73.7784H84.8881V71.5556Z" fill="white"/>
<path d="M84.8881 69.3327H82.6667V71.5556H84.8881V69.3327Z" fill="#D1D3D4"/>
<path d="M84.8881 67.1113H82.6667V69.3327H84.8881V67.1113Z" fill="#D1D3D4"/>
<path d="M84.8881 64.8885H82.6667V67.1113H84.8881V64.8885Z" fill="#D1D3D4"/>
<path d="M84.8881 60.4442H82.6667V62.6671H84.8881V60.4442Z" fill="#D1D3D4"/>
<path d="M84.8881 49.3329H82.6667V51.5558H84.8881V49.3329Z" fill="#58595B"/>
<path d="M84.8881 47.1116H82.6667V49.3329H84.8881V47.1116Z" fill="black"/>
<path d="M84.8881 44.8887H82.6667V47.1116H84.8881V44.8887Z" fill="black"/>
<path d="M84.8881 42.6673H82.6667V44.8887H84.8881V42.6673Z" fill="#58595B"/>
<path d="M82.6667 95.9996H80.4438V98.2225H82.6667V95.9996Z" fill="black"/>
<path d="M82.6667 93.7782H80.4438V95.9996H82.6667V93.7782Z" fill="#58595B"/>
<path d="M82.6667 91.5553H80.4438V93.7782H82.6667V91.5553Z" fill="white"/>
<path d="M82.6667 89.334H80.4438V91.5553H82.6667V89.334Z" fill="#D1D3D4"/>
<path d="M82.6667 87.1111H80.4438V89.334H82.6667V87.1111Z" fill="white"/>
<path d="M82.6667 84.8882H80.4438V87.1111H82.6667V84.8882Z" fill="white"/>
<path d="M82.6667 82.6669H80.4438V84.8882H82.6667V82.6669Z" fill="white"/>
<path d="M82.6667 80.444H80.4438V82.6669H82.6667V80.444Z" fill="white"/>
<path d="M82.6667 78.2227H80.4438V80.444H82.6667V78.2227Z" fill="white"/>
<path d="M82.6667 75.9998H80.4438V78.2227H82.6667V75.9998Z" fill="white"/>
<path d="M82.6667 73.7785H80.4438V75.9998H82.6667V73.7785Z" fill="white"/>
<path d="M82.6667 71.5556H80.4438V73.7784H82.6667V71.5556Z" fill="#D1D3D4"/>
<path d="M82.6667 69.3327H80.4438V71.5556H82.6667V69.3327Z" fill="#D1D3D4"/>
<path d="M82.6667 67.1113H80.4438V69.3327H82.6667V67.1113Z" fill="#D1D3D4"/>
<path d="M82.6667 62.6671H80.4438V64.8885H82.6667V62.6671Z" fill="#D1D3D4"/>
<path d="M82.6667 44.8887H80.4438V47.1116H82.6667V44.8887Z" fill="#58595B"/>
<path d="M82.6667 42.6673H80.4438V44.8887H82.6667V42.6673Z" fill="black"/>
<path d="M82.6667 40.4445H80.4438V42.6673H82.6667V40.4445Z" fill="#58595B"/>
<path d="M80.444 98.2225H78.2227V100.444H80.444V98.2225Z" fill="#58595B"/>
<path d="M80.444 95.9996H78.2227V98.2225H80.444V95.9996Z" fill="black"/>
<path d="M80.444 93.7782H78.2227V95.9996H80.444V93.7782Z" fill="white"/>
<path d="M80.444 91.5553H78.2227V93.7782H80.444V91.5553Z" fill="#D1D3D4"/>
<path d="M80.444 89.334H78.2227V91.5553H80.444V89.334Z" fill="#D1D3D4"/>
<path d="M80.444 87.1111H78.2227V89.334H80.444V87.1111Z" fill="#D1D3D4"/>
<path d="M80.444 84.8882H78.2227V87.1111H80.444V84.8882Z" fill="white"/>
<path d="M80.444 82.6669H78.2227V84.8882H80.444V82.6669Z" fill="white"/>
<path d="M80.444 80.444H78.2227V82.6669H80.444V80.444Z" fill="white"/>
<path d="M80.444 78.2227H78.2227V80.444H80.444V78.2227Z" fill="white"/>
<path d="M80.444 75.9998H78.2227V78.2227H80.444V75.9998Z" fill="white"/>
<path d="M80.444 73.7785H78.2227V75.9998H80.444V73.7785Z" fill="white"/>
<path d="M80.444 71.5556H78.2227V73.7784H80.444V71.5556Z" fill="white"/>
<path d="M80.444 69.3327H78.2227V71.5556H80.444V69.3327Z" fill="#D1D3D4"/>
<path d="M80.444 67.1113H78.2227V69.3327H80.444V67.1113Z" fill="#D1D3D4"/>
<path d="M80.444 64.8885H78.2227V67.1113H80.444V64.8885Z" fill="#D1D3D4"/>
<path d="M80.444 60.4442H78.2227V62.6671H80.444V60.4442Z" fill="#D1D3D4"/>
<path d="M80.444 53.7771H78.2227V56H80.444V53.7771Z" fill="#D1D3D4"/>
<path d="M80.444 40.4445H78.2227V42.6673H80.444V40.4445Z" fill="black"/>
<path d="M80.444 38.2216H78.2227V40.4445H80.444V38.2216Z" fill="#58595B"/>
<path d="M78.2226 98.2225H75.9998V100.444H78.2226V98.2225Z" fill="black"/>
<path d="M78.2226 95.9996H75.9998V98.2225H78.2226V95.9996Z" fill="#58595B"/>
<path d="M78.2226 93.7782H75.9998V95.9996H78.2226V93.7782Z" fill="#D1D3D4"/>
<path d="M78.2226 91.5553H75.9998V93.7782H78.2226V91.5553Z" fill="#D1D3D4"/>
<path d="M78.2226 89.334H75.9998V91.5553H78.2226V89.334Z" fill="white"/>
<path d="M78.2226 87.1111H75.9998V89.334H78.2226V87.1111Z" fill="#D1D3D4"/>
<path d="M78.2226 84.8882H75.9998V87.1111H78.2226V84.8882Z" fill="#D1D3D4"/>
<path d="M78.2226 82.6669H75.9998V84.8882H78.2226V82.6669Z" fill="white"/>
<path d="M78.2226 80.444H75.9998V82.6669H78.2226V80.444Z" fill="white"/>
<path d="M78.2226 78.2227H75.9998V80.444H78.2226V78.2227Z" fill="white"/>
<path d="M78.2226 75.9998H75.9998V78.2227H78.2226V75.9998Z" fill="white"/>
<path d="M78.2226 73.7785H75.9998V75.9998H78.2226V73.7785Z" fill="white"/>
<path d="M78.2226 71.5556H75.9998V73.7784H78.2226V71.5556Z" fill="white"/>
<path d="M78.2226 69.3327H75.9998V71.5556H78.2226V69.3327Z" fill="#D1D3D4"/>
<path d="M78.2226 67.1113H75.9998V69.3327H78.2226V67.1113Z" fill="#D1D3D4"/>
<path d="M78.2226 64.8885H75.9998V67.1113H78.2226V64.8885Z" fill="#D1D3D4"/>
<path d="M78.2226 62.6671H75.9998V64.8885H78.2226V62.6671Z" fill="#D1D3D4"/>
<path d="M78.2226 47.1116H75.9998V49.3329H78.2226V47.1116Z" fill="#58595B"/>
<path d="M78.2226 38.2216H75.9998V40.4445H78.2226V38.2216Z" fill="black"/>
<path d="M78.2226 36.0002H75.9998V38.2216H78.2226V36.0002Z" fill="black"/>
<path d="M78.2226 33.7773H75.9998V36.0002H78.2226V33.7773Z" fill="#58595B"/>
<path d="M75.9997 100.444H73.7783V102.667H75.9997V100.444Z" fill="#58595B"/>
<path d="M75.9997 98.2225H73.7783V100.444H75.9997V98.2225Z" fill="black"/>
<path d="M75.9997 95.9996H73.7783V98.2225H75.9997V95.9996Z" fill="white"/>
<path d="M75.9997 93.7782H73.7783V95.9996H75.9997V93.7782Z" fill="#D1D3D4"/>
<path d="M75.9997 91.5553H73.7783V93.7782H75.9997V91.5553Z" fill="#D1D3D4"/>
<path d="M75.9997 89.334H73.7783V91.5553H75.9997V89.334Z" fill="#D1D3D4"/>
<path d="M75.9997 87.1111H73.7783V89.334H75.9997V87.1111Z" fill="#D1D3D4"/>
<path d="M75.9997 84.8882H73.7783V87.1111H75.9997V84.8882Z" fill="#D1D3D4"/>
<path d="M75.9997 82.6669H73.7783V84.8882H75.9997V82.6669Z" fill="#D1D3D4"/>
<path d="M75.9997 80.444H73.7783V82.6669H75.9997V80.444Z" fill="#D1D3D4"/>
<path d="M75.9997 78.2227H73.7783V80.444H75.9997V78.2227Z" fill="white"/>
<path d="M75.9997 75.9998H73.7783V78.2227H75.9997V75.9998Z" fill="white"/>
<path d="M75.9997 73.7785H73.7783V75.9998H75.9997V73.7785Z" fill="white"/>
<path d="M75.9997 71.5556H73.7783V73.7784H75.9997V71.5556Z" fill="white"/>
<path d="M75.9997 69.3327H73.7783V71.5556H75.9997V69.3327Z" fill="white"/>
<path d="M75.9997 67.1113H73.7783V69.3327H75.9997V67.1113Z" fill="#D1D3D4"/>
<path d="M75.9997 64.8885H73.7783V67.1113H75.9997V64.8885Z" fill="#D1D3D4"/>
<path d="M75.9997 60.4442H73.7783V62.6671H75.9997V60.4442Z" fill="#D1D3D4"/>
<path d="M75.9997 33.7773H73.7783V36.0002H75.9997V33.7773Z" fill="black"/>
<path d="M75.9997 31.556H73.7783V33.7773H75.9997V31.556Z" fill="#58595B"/>
<path d="M73.7783 100.444H71.5554V102.667H73.7783V100.444Z" fill="#58595B"/>
<path d="M73.7783 98.2225H71.5554V100.444H73.7783V98.2225Z" fill="black"/>
<path d="M73.7783 95.9996H71.5554V98.2225H73.7783V95.9996Z" fill="white"/>
<path d="M73.7783 93.7782H71.5554V95.9996H73.7783V93.7782Z" fill="#D1D3D4"/>
<path d="M73.7783 91.5553H71.5554V93.7782H73.7783V91.5553Z" fill="#D1D3D4"/>
<path d="M73.7783 89.334H71.5554V91.5553H73.7783V89.334Z" fill="#D1D3D4"/>
<path d="M73.7783 87.1111H71.5554V89.334H73.7783V87.1111Z" fill="#D1D3D4"/>
<path d="M73.7783 84.8882H71.5554V87.1111H73.7783V84.8882Z" fill="#D1D3D4"/>
<path d="M73.7783 82.6669H71.5554V84.8882H73.7783V82.6669Z" fill="#D1D3D4"/>
<path d="M73.7783 80.444H71.5554V82.6669H73.7783V80.444Z" fill="#D1D3D4"/>
<path d="M73.7783 78.2227H71.5554V80.444H73.7783V78.2227Z" fill="#D1D3D4"/>
<path d="M73.7783 75.9998H71.5554V78.2227H73.7783V75.9998Z" fill="white"/>
<path d="M73.7783 73.7785H71.5554V75.9998H73.7783V73.7785Z" fill="white"/>
<path d="M73.7783 71.5556H71.5554V73.7784H73.7783V71.5556Z" fill="white"/>
<path d="M73.7783 69.3327H71.5554V71.5556H73.7783V69.3327Z" fill="white"/>
<path d="M73.7783 67.1113H71.5554V69.3327H73.7783V67.1113Z" fill="white"/>
<path d="M73.7783 64.8885H71.5554V67.1113H73.7783V64.8885Z" fill="#D1D3D4"/>
<path d="M73.7783 62.6671H71.5554V64.8885H73.7783V62.6671Z" fill="#D1D3D4"/>
<path d="M73.7783 60.4442H71.5554V62.6671H73.7783V60.4442Z" fill="#D1D3D4"/>
<path d="M73.7783 42.6673H71.5554V44.8887H73.7783V42.6673Z" fill="#58595B"/>
<path d="M73.7783 31.556H71.5554V33.7773H73.7783V31.556Z" fill="black"/>
<path d="M73.7783 29.3331H71.5554V31.556H73.7783V29.3331Z" fill="#58595B"/>
<path d="M71.5554 100.444H69.3325V102.667H71.5554V100.444Z" fill="#58595B"/>
<path d="M71.5554 98.2225H69.3325V100.444H71.5554V98.2225Z" fill="black"/>
<path d="M71.5554 95.9996H69.3325V98.2225H71.5554V95.9996Z" fill="white"/>
<path d="M71.5554 93.7782H69.3325V95.9996H71.5554V93.7782Z" fill="#D1D3D4"/>
<path d="M71.5554 91.5553H69.3325V93.7782H71.5554V91.5553Z" fill="#D1D3D4"/>
<path d="M71.5554 89.334H69.3325V91.5553H71.5554V89.334Z" fill="#D1D3D4"/>
<path d="M71.5554 87.1111H69.3325V89.334H71.5554V87.1111Z" fill="#D1D3D4"/>
<path d="M71.5554 84.8882H69.3325V87.1111H71.5554V84.8882Z" fill="white"/>
<path d="M71.5554 82.6669H69.3325V84.8882H71.5554V82.6669Z" fill="#D1D3D4"/>
<path d="M71.5554 80.444H69.3325V82.6669H71.5554V80.444Z" fill="#D1D3D4"/>
<path d="M71.5554 78.2227H69.3325V80.444H71.5554V78.2227Z" fill="#D1D3D4"/>
<path d="M71.5554 75.9998H69.3325V78.2227H71.5554V75.9998Z" fill="#D1D3D4"/>
<path d="M71.5554 73.7785H69.3325V75.9998H71.5554V73.7785Z" fill="white"/>
<path d="M71.5554 71.5556H69.3325V73.7784H71.5554V71.5556Z" fill="white"/>
<path d="M71.5554 69.3327H69.3325V71.5556H71.5554V69.3327Z" fill="white"/>
<path d="M71.5554 67.1113H69.3325V69.3327H71.5554V67.1113Z" fill="white"/>
<path d="M71.5554 64.8885H69.3325V67.1113H71.5554V64.8885Z" fill="#D1D3D4"/>
<path d="M71.5554 62.6671H69.3325V64.8885H71.5554V62.6671Z" fill="#D1D3D4"/>
<path d="M71.5554 60.4442H69.3325V62.6671H71.5554V60.4442Z" fill="#D1D3D4"/>
<path d="M71.5554 51.5558H69.3325V53.7771H71.5554V51.5558Z" fill="#D1D3D4"/>
<path d="M71.5554 31.556H69.3325V33.7773H71.5554V31.556Z" fill="#58595B"/>
<path d="M71.5554 29.3331H69.3325V31.556H71.5554V29.3331Z" fill="black"/>
<path d="M71.5554 27.1118H69.3325V29.3331H71.5554V27.1118Z" fill="black"/>
<path d="M71.5554 24.8889H69.3325V27.1118H71.5554V24.8889Z" fill="#D1D3D4"/>
<path d="M69.3327 100.444H67.1113V102.667H69.3327V100.444Z" fill="#58595B"/>
<path d="M69.3327 98.2225H67.1113V100.444H69.3327V98.2225Z" fill="black"/>
<path d="M69.3327 95.9996H67.1113V98.2225H69.3327V95.9996Z" fill="#D1D3D4"/>
<path d="M69.3327 91.5553H67.1113V93.7782H69.3327V91.5553Z" fill="#D1D3D4"/>
<path d="M69.3327 89.334H67.1113V91.5553H69.3327V89.334Z" fill="#D1D3D4"/>
<path d="M69.3327 87.1111H67.1113V89.334H69.3327V87.1111Z" fill="#D1D3D4"/>
<path d="M69.3327 84.8882H67.1113V87.1111H69.3327V84.8882Z" fill="#D1D3D4"/>
<path d="M69.3327 82.6669H67.1113V84.8882H69.3327V82.6669Z" fill="#D1D3D4"/>
<path d="M69.3327 80.444H67.1113V82.6669H69.3327V80.444Z" fill="#D1D3D4"/>
<path d="M69.3327 78.2227H67.1113V80.444H69.3327V78.2227Z" fill="#D1D3D4"/>
<path d="M69.3327 75.9998H67.1113V78.2227H69.3327V75.9998Z" fill="#D1D3D4"/>
<path d="M69.3327 73.7785H67.1113V75.9998H69.3327V73.7785Z" fill="#D1D3D4"/>
<path d="M69.3327 71.5556H67.1113V73.7784H69.3327V71.5556Z" fill="#2B6991"/>
<path d="M69.3327 69.3327H67.1113V71.5556H69.3327V69.3327Z" fill="#2B6991"/>
<path d="M69.3327 67.1113H67.1113V69.3327H69.3327V67.1113Z" fill="#2B6991"/>
<path d="M69.3327 64.8885H67.1113V67.1113H69.3327V64.8885Z" fill="#2B6991"/>
<path d="M69.3327 62.6671H67.1113V64.8885H69.3327V62.6671Z" fill="#2B6991"/>
<path d="M69.3327 60.4442H67.1113V62.6671H69.3327V60.4442Z" fill="#2B6991"/>
<path d="M69.3327 36.0002H67.1113V38.2216H69.3327V36.0002Z" fill="#58595B"/>
<path d="M69.3327 29.3331H67.1113V31.556H69.3327V29.3331Z" fill="#58595B"/>
<path d="M69.3327 27.1118H67.1113V29.3331H69.3327V27.1118Z" fill="#58595B"/>
<path d="M69.3327 24.8889H67.1113V27.1118H69.3327V24.8889Z" fill="black"/>
<path d="M69.3327 22.666H67.1113V24.8889H69.3327V22.666Z" fill="#D1D3D4"/>
<path d="M67.1113 100.444H64.8884V102.667H67.1113V100.444Z" fill="#58595B"/>
<path d="M67.1113 98.2225H64.8884V100.444H67.1113V98.2225Z" fill="black"/>
<path d="M67.1113 95.9996H64.8884V98.2225H67.1113V95.9996Z" fill="#58595B"/>
<path d="M67.1113 93.7782H64.8884V95.9996H67.1113V93.7782Z" fill="white"/>
<path d="M67.1113 91.5553H64.8884V93.7782H67.1113V91.5553Z" fill="#D1D3D4"/>
<path d="M67.1113 87.1111H64.8884V89.334H67.1113V87.1111Z" fill="#D1D3D4"/>
<path d="M67.1113 82.6669H64.8884V84.8882H67.1113V82.6669Z" fill="#D1D3D4"/>
<path d="M67.1113 78.2227H64.8884V80.444H67.1113V78.2227Z" fill="#D1D3D4"/>
<path d="M64.8884 78.2227H62.6655V80.444H64.8884V78.2227Z" fill="#808285"/>
<path d="M67.1113 80.4456H64.8884V82.6669H67.1113V80.4456Z" fill="#808285"/>
<path d="M64.8884 82.6669H62.6655V84.8882H64.8884V82.6669Z" fill="#808285"/>
<path d="M67.1113 84.8898H64.8884V87.1111H67.1113V84.8898Z" fill="#808285"/>
<path d="M64.8884 87.1111H62.6655V89.3325H64.8884V87.1111Z" fill="#808285"/>
<path d="M67.1113 89.334H64.8884V91.5553H67.1113V89.334Z" fill="#808285"/>
<path d="M64.8884 91.5569H62.6655V93.7782H64.8884V91.5569Z" fill="#808285"/>
<path d="M69.3342 93.7782H67.1113V95.9996H69.3342V93.7782Z" fill="#808285"/>
<path d="M67.1113 75.9998H64.8884V78.2227H67.1113V75.9998Z" fill="#D1D3D4"/>
<path d="M67.1113 73.7785H64.8884V75.9998H67.1113V73.7785Z" fill="#2B6991"/>
<path d="M67.1113 71.5556H64.8884V73.7784H67.1113V71.5556Z" fill="#1E93D0"/>
<path d="M67.1113 69.3327H64.8884V71.5556H67.1113V69.3327Z" fill="#1E93D0"/>
<path d="M67.1113 67.1113H64.8884V69.3327H67.1113V67.1113Z" fill="#1E93D0"/>
<path d="M67.1113 64.8885H64.8884V67.1113H67.1113V64.8885Z" fill="#1E93D0"/>
<path d="M67.1113 62.6671H64.8884V64.8885H67.1113V62.6671Z" fill="#1E93D0"/>
<path d="M67.1113 60.4442H64.8884V62.6671H67.1113V60.4442Z" fill="#1E93D0"/>
<path d="M67.1113 58.2229H64.8884V60.4442H67.1113V58.2229Z" fill="#2B6991"/>
<path d="M67.1113 56H64.8884V58.2229H67.1113V56Z" fill="#2B6991"/>
<path d="M67.1113 47.1116H64.8884V49.3329H67.1113V47.1116Z" fill="#D1D3D4"/>
<path d="M67.1113 40.4445H64.8884V42.6673H67.1113V40.4445Z" fill="#58595B"/>
<path d="M67.1113 33.7773H64.8884V36.0002H67.1113V33.7773Z" fill="#D1D3D4"/>
<path d="M67.1113 27.1118H64.8884V29.3331H67.1113V27.1118Z" fill="#58595B"/>
<path d="M67.1113 24.8889H64.8884V27.1118H67.1113V24.8889Z" fill="#58595B"/>
<path d="M67.1113 22.666H64.8884V24.8889H67.1113V22.666Z" fill="black"/>
<path d="M67.1113 20.4447H64.8884V22.666H67.1113V20.4447Z" fill="#D1D3D4"/>
<path d="M64.8883 98.2225H62.667V100.444H64.8883V98.2225Z" fill="#58595B"/>
<path d="M64.8883 95.9996H62.667V98.2225H64.8883V95.9996Z" fill="black"/>
<path d="M64.8883 93.7782H62.667V95.9996H64.8883V93.7782Z" fill="white"/>
<path d="M64.8883 89.334H62.667V91.5553H64.8883V89.334Z" fill="#D1D3D4"/>
<path d="M64.8883 84.8882H62.667V87.1111H64.8883V84.8882Z" fill="#D1D3D4"/>
<path d="M64.8883 80.444H62.667V82.6669H64.8883V80.444Z" fill="#D1D3D4"/>
<path d="M64.8883 75.9998H62.667V78.2227H64.8883V75.9998Z" fill="#D1D3D4"/>
<path d="M64.8883 73.7785H62.667V75.9998H64.8883V73.7785Z" fill="#2B6991"/>
<path d="M64.8883 71.5556H62.667V73.7784H64.8883V71.5556Z" fill="#1E93D0"/>
<path d="M64.8883 69.3327H62.667V71.5556H64.8883V69.3327Z" fill="#2B6991"/>
<path d="M64.8883 67.1113H62.667V69.3327H64.8883V67.1113Z" fill="#58595B"/>
<path d="M64.8883 64.8885H62.667V67.1113H64.8883V64.8885Z" fill="#58595B"/>
<path d="M64.8883 62.6671H62.667V64.8885H64.8883V62.6671Z" fill="#58595B"/>
<path d="M64.8883 60.4442H62.667V62.6671H64.8883V60.4442Z" fill="#58595B"/>
<path d="M64.8883 58.2229H62.667V60.4442H64.8883V58.2229Z" fill="#1E93D0"/>
<path d="M64.8883 56H62.667V58.2229H64.8883V56Z" fill="#1E93D0"/>
<path d="M64.8883 53.7771H62.667V56H64.8883V53.7771Z" fill="#2B6991"/>
<path d="M64.8883 29.3331H62.667V31.556H64.8883V29.3331Z" fill="#58595B"/>
<path d="M64.8883 24.8889H62.667V27.1118H64.8883V24.8889Z" fill="#58595B"/>
<path d="M64.8883 22.666H62.667V24.8889H64.8883V22.666Z" fill="#58595B"/>
<path d="M64.8883 20.4447H62.667V22.666H64.8883V20.4447Z" fill="black"/>
<path d="M64.8883 18.2218H62.667V20.4447H64.8883V18.2218Z" fill="#D1D3D4"/>
<path d="M62.667 95.9996H60.4441V98.2225H62.667V95.9996Z" fill="black"/>
<path d="M62.667 93.7782H60.4441V95.9996H62.667V93.7782Z" fill="#58595B"/>
<path d="M62.667 91.5553H60.4441V93.7782H62.667V91.5553Z" fill="white"/>
<path d="M62.667 73.7785H60.4441V75.9998H62.667V73.7785Z" fill="#2B6991"/>
<path d="M62.667 71.5556H60.4441V73.7784H62.667V71.5556Z" fill="#2B6991"/>
<path d="M62.667 69.3327H60.4441V71.5556H62.667V69.3327Z" fill="white"/>
<path d="M62.667 67.1113H60.4441V69.3327H62.667V67.1113Z" fill="#58595B"/>
<path d="M62.667 64.8885H60.4441V67.1113H62.667V64.8885Z" fill="#2B6991"/>
<path d="M62.667 62.6671H60.4441V64.8885H62.667V62.6671Z" fill="#58595B"/>
<path d="M62.667 60.4442H60.4441V62.6671H62.667V60.4442Z" fill="black"/>
<path d="M62.667 58.2229H60.4441V60.4442H62.667V58.2229Z" fill="#58595B"/>
<path d="M62.667 56H60.4441V58.2229H62.667V56Z" fill="#1E93D0"/>
<path d="M62.667 53.7771H60.4441V56H62.667V53.7771Z" fill="#5BBCDB"/>
<path d="M62.667 51.5558H60.4441V53.7771H62.667V51.5558Z" fill="#2B6991"/>
<path d="M62.667 49.3329H60.4441V51.5558H62.667V49.3329Z" fill="#2B6991"/>
<path d="M62.667 42.6673H60.4441V44.8887H62.667V42.6673Z" fill="#58595B"/>
<path d="M62.667 36.0002H60.4441V38.2216H62.667V36.0002Z" fill="#58595B"/>
<path d="M62.667 22.666H60.4441V24.8889H62.667V22.666Z" fill="#58595B"/>
<path d="M62.667 20.4447H60.4441V22.666H62.667V20.4447Z" fill="#58595B"/>
<path d="M62.667 18.2218H60.4441V20.4447H62.667V18.2218Z" fill="black"/>
<path d="M60.4442 95.9996H58.2229V98.2225H60.4442V95.9996Z" fill="#58595B"/>
<path d="M60.4442 93.7782H58.2229V95.9996H60.4442V93.7782Z" fill="black"/>
<path d="M60.4442 91.5553H58.2229V93.7782H60.4442V91.5553Z" fill="white"/>
<path d="M60.4442 84.8882H58.2229V87.1111H60.4442V84.8882Z" fill="#D1D3D4"/>
<path d="M60.4442 73.7785H58.2229V75.9998H60.4442V73.7785Z" fill="#2B6991"/>
<path d="M60.4442 71.5556H58.2229V73.7784H60.4442V71.5556Z" fill="#1E93D0"/>
<path d="M60.4442 69.3327H58.2229V71.5556H60.4442V69.3327Z" fill="#2B6991"/>
<path d="M60.4442 67.1113H58.2229V69.3327H60.4442V67.1113Z" fill="#58595B"/>
<path d="M60.4442 64.8885H58.2229V67.1113H60.4442V64.8885Z" fill="#58595B"/>
<path d="M60.4442 62.6671H58.2229V64.8885H60.4442V62.6671Z" fill="#58595B"/>
<path d="M60.4442 60.4442H58.2229V62.6671H60.4442V60.4442Z" fill="#58595B"/>
<path d="M60.4442 58.2229H58.2229V60.4442H60.4442V58.2229Z" fill="black"/>
<path d="M60.4442 56H58.2229V58.2229H60.4442V56Z" fill="black"/>
<path d="M60.4442 53.7771H58.2229V56H60.4442V53.7771Z" fill="#58595B"/>
<path d="M60.4442 51.5558H58.2229V53.7771H60.4442V51.5558Z" fill="#1E93D0"/>
<path d="M60.4442 49.3329H58.2229V51.5558H60.4442V49.3329Z" fill="#5BBCDB"/>
<path d="M60.4442 47.1116H58.2229V49.3329H60.4442V47.1116Z" fill="#2B6991"/>
<path d="M60.4442 24.8889H58.2229V27.1118H60.4442V24.8889Z" fill="#58595B"/>
<path d="M60.4442 20.4447H58.2229V22.666H60.4442V20.4447Z" fill="#58595B"/>
<path d="M60.4442 18.2218H58.2229V20.4447H60.4442V18.2218Z" fill="black"/>
<path d="M60.4442 16.0005H58.2229V18.2218H60.4442V16.0005Z" fill="#D1D3D4"/>
<path d="M58.2229 93.7782H56V95.9996H58.2229V93.7782Z" fill="#58595B"/>
<path d="M58.2229 91.5553H56V93.7782H58.2229V91.5553Z" fill="black"/>
<path d="M58.2229 89.334H56V91.5553H58.2229V89.334Z" fill="white"/>
<path d="M58.2229 73.7785H56V75.9998H58.2229V73.7785Z" fill="#2B6991"/>
<path d="M58.2229 71.5556H56V73.7784H58.2229V71.5556Z" fill="#2B6991"/>
<path d="M58.2229 69.3327H56V71.5556H58.2229V69.3327Z" fill="#1E93D0"/>
<path d="M58.2229 67.1113H56V69.3327H58.2229V67.1113Z" fill="#2B6991"/>
<path d="M58.2229 64.8885H56V67.1113H58.2229V64.8885Z" fill="black"/>
<path d="M58.2229 62.6671H56V64.8885H58.2229V62.6671Z" fill="#58595B"/>
<path d="M58.2229 60.4442H56V62.6671H58.2229V60.4442Z" fill="white"/>
<path d="M58.2229 58.2229H56V60.4442H58.2229V58.2229Z" fill="black"/>
<path d="M58.2229 56H56V58.2229H58.2229V56Z" fill="black"/>
<path d="M58.2229 53.7771H56V56H58.2229V53.7771Z" fill="#58595B"/>
<path d="M58.2229 51.5558H56V53.7771H58.2229V51.5558Z" fill="black"/>
<path d="M58.2229 49.3329H56V51.5558H58.2229V49.3329Z" fill="#1E93D0"/>
<path d="M58.2229 47.1116H56V49.3329H58.2229V47.1116Z" fill="#5BBCDB"/>
<path d="M58.2229 44.8887H56V47.1116H58.2229V44.8887Z" fill="#2B6991"/>
<path d="M58.2229 29.3331H56V31.556H58.2229V29.3331Z" fill="#58595B"/>
<path d="M58.2229 22.666H56V24.8889H58.2229V22.666Z" fill="#58595B"/>
<path d="M58.2229 18.2218H56V20.4447H58.2229V18.2218Z" fill="#58595B"/>
<path d="M58.2229 16.0005H56V18.2218H58.2229V16.0005Z" fill="black"/>
<path d="M56 91.5553H53.7771V93.7782H56V91.5553Z" fill="#58595B"/>
<path d="M56 89.334H53.7771V91.5553H56V89.334Z" fill="black"/>
<path d="M56 87.1111H53.7771V89.334H56V87.1111Z" fill="#D1D3D4"/>
<path d="M56 78.2227H53.7771V80.444H56V78.2227Z" fill="#D1D3D4"/>
<path d="M56 71.5556H53.7771V73.7784H56V71.5556Z" fill="#2B6991"/>
<path d="M56 69.3327H53.7771V71.5556H56V69.3327Z" fill="#2B6991"/>
<path d="M56 67.1113H53.7771V69.3327H56V67.1113Z" fill="#1E93D0"/>
<path d="M56 64.8885H53.7771V67.1113H56V64.8885Z" fill="#2B6991"/>
<path d="M56 62.6671H53.7771V64.8885H56V62.6671Z" fill="#58595B"/>
<path d="M56 60.4442H53.7771V62.6671H56V60.4442Z" fill="#58595B"/>
<path d="M56 58.2229H53.7771V60.4442H56V58.2229Z" fill="black"/>
<path d="M56 56H53.7771V58.2229H56V56Z" fill="#58595B"/>
<path d="M56 53.7771H53.7771V56H56V53.7771Z" fill="#58595B"/>
<path d="M56 51.5558H53.7771V53.7771H56V51.5558Z" fill="#58595B"/>
<path d="M56 49.3329H53.7771V51.5558H56V49.3329Z" fill="#1E93D0"/>
<path d="M56 47.1116H53.7771V49.3329H56V47.1116Z" fill="#1E93D0"/>
<path d="M56 44.8887H53.7771V47.1116H56V44.8887Z" fill="#5BBCDB"/>
<path d="M56 42.6673H53.7771V44.8887H56V42.6673Z" fill="#2B6991"/>
<path d="M56 36.0002H53.7771V38.2216H56V36.0002Z" fill="#58595B"/>
<path d="M56 31.556H53.7771V33.7773H56V31.556Z" fill="#58595B"/>
<path d="M56 24.8889H53.7771V27.1118H56V24.8889Z" fill="#58595B"/>
<path d="M56 20.4447H53.7771V22.666H56V20.4447Z" fill="#58595B"/>
<path d="M56 18.2218H53.7771V20.4447H56V18.2218Z" fill="#58595B"/>
<path d="M56 16.0005H53.7771V18.2218H56V16.0005Z" fill="black"/>
<path d="M56 13.7776H53.7771V16.0005H56V13.7776Z" fill="#D1D3D4"/>
<path d="M53.777 89.334H51.5557V91.5553H53.777V89.334Z" fill="#58595B"/>
<path d="M53.777 87.1111H51.5557V89.334H53.777V87.1111Z" fill="black"/>
<path d="M53.777 84.8882H51.5557V87.1111H53.777V84.8882Z" fill="#D1D3D4"/>
<path d="M53.777 69.3327H51.5557V71.5556H53.777V69.3327Z" fill="#2B6991"/>
<path d="M53.777 67.1113H51.5557V69.3327H53.777V67.1113Z" fill="#2B6991"/>
<path d="M53.777 64.8885H51.5557V67.1113H53.777V64.8885Z" fill="#1E93D0"/>
<path d="M53.777 62.6671H51.5557V64.8885H53.777V62.6671Z" fill="#2B6991"/>
<path d="M53.777 60.4442H51.5557V62.6671H53.777V60.4442Z" fill="#58595B"/>
<path d="M53.777 58.2229H51.5557V60.4442H53.777V58.2229Z" fill="#58595B"/>
<path d="M53.777 56H51.5557V58.2229H53.777V56Z" fill="#58595B"/>
<path d="M53.777 53.7771H51.5557V56H53.777V53.7771Z" fill="#5BBCDB"/>
<path d="M53.777 51.5558H51.5557V53.7771H53.777V51.5558Z" fill="#5BBCDB"/>
<path d="M53.777 49.3329H51.5557V51.5558H53.777V49.3329Z" fill="#5BBCDB"/>
<path d="M53.777 47.1116H51.5557V49.3329H53.777V47.1116Z" fill="#1E93D0"/>
<path d="M53.777 44.8887H51.5557V47.1116H53.777V44.8887Z" fill="#5BBCDB"/>
<path d="M53.777 42.6673H51.5557V44.8887H53.777V42.6673Z" fill="#5BBCDB"/>
<path d="M53.777 40.4445H51.5557V42.6673H53.777V40.4445Z" fill="#2B6991"/>
<path d="M53.777 22.666H51.5557V24.8889H53.777V22.666Z" fill="#58595B"/>
<path d="M53.777 18.2218H51.5557V20.4447H53.777V18.2218Z" fill="#58595B"/>
<path d="M53.777 16.0005H51.5557V18.2218H53.777V16.0005Z" fill="#58595B"/>
<path d="M53.777 13.7776H51.5557V16.0005H53.777V13.7776Z" fill="black"/>
<path d="M51.5556 87.1111H49.3328V89.334H51.5556V87.1111Z" fill="black"/>
<path d="M51.5556 84.8882H49.3328V87.1111H51.5556V84.8882Z" fill="black"/>
<path d="M51.5556 82.6669H49.3328V84.8882H51.5556V82.6669Z" fill="#D1D3D4"/>
<path d="M51.5556 67.1113H49.3328V69.3327H51.5556V67.1113Z" fill="#2B6991"/>
<path d="M51.5556 64.8885H49.3328V67.1113H51.5556V64.8885Z" fill="#2B6991"/>
<path d="M51.5556 62.6671H49.3328V64.8885H51.5556V62.6671Z" fill="#1E93D0"/>
<path d="M51.5556 60.4442H49.3328V62.6671H51.5556V60.4442Z" fill="#2B6991"/>
<path d="M51.5556 58.2229H49.3328V60.4442H51.5556V58.2229Z" fill="white"/>
<path d="M51.5556 56H49.3328V58.2229H51.5556V56Z" fill="#58595B"/>
<path d="M51.5556 53.7771H49.3328V56H51.5556V53.7771Z" fill="#5BBCDB"/>
<path d="M51.5556 51.5558H49.3328V53.7771H51.5556V51.5558Z" fill="#5BBCDB"/>
<path d="M51.5556 49.3329H49.3328V51.5558H51.5556V49.3329Z" fill="#5BBCDB"/>
<path d="M51.5556 47.1116H49.3328V49.3329H51.5556V47.1116Z" fill="white"/>
<path d="M51.5556 44.8887H49.3328V47.1116H51.5556V44.8887Z" fill="white"/>
<path d="M51.5556 42.6673H49.3328V44.8887H51.5556V42.6673Z" fill="#5BBCDB"/>
<path d="M51.5556 40.4445H49.3328V42.6673H51.5556V40.4445Z" fill="#2B6991"/>
<path d="M51.5556 33.7773H49.3328V36.0002H51.5556V33.7773Z" fill="#D1D3D4"/>
<path d="M51.5556 27.1118H49.3328V29.3331H51.5556V27.1118Z" fill="#58595B"/>
<path d="M51.5556 20.4447H49.3328V22.666H51.5556V20.4447Z" fill="#58595B"/>
<path d="M51.5556 16.0005H49.3328V18.2218H51.5556V16.0005Z" fill="#58595B"/>
<path d="M51.5556 13.7776H49.3328V16.0005H51.5556V13.7776Z" fill="black"/>
<path d="M51.5556 11.5562H49.3328V13.7776H51.5556V11.5562Z" fill="#D1D3D4"/>
<path d="M49.3329 87.1111H47.1116V89.334H49.3329V87.1111Z" fill="#58595B"/>
<path d="M49.3329 84.8882H47.1116V87.1111H49.3329V84.8882Z" fill="black"/>
<path d="M49.3329 82.6669H47.1116V84.8882H49.3329V82.6669Z" fill="black"/>
<path d="M49.3329 64.8885H47.1116V67.1113H49.3329V64.8885Z" fill="#2B6991"/>
<path d="M49.3329 62.6671H47.1116V64.8885H49.3329V62.6671Z" fill="#2B6991"/>
<path d="M49.3329 60.4442H47.1116V62.6671H49.3329V60.4442Z" fill="#1E93D0"/>
<path d="M49.3329 58.2229H47.1116V60.4442H49.3329V58.2229Z" fill="#1E93D0"/>
<path d="M49.3329 56H47.1116V58.2229H49.3329V56Z" fill="#2B6991"/>
<path d="M49.3329 53.7771H47.1116V56H49.3329V53.7771Z" fill="#5BBCDB"/>
<path d="M49.3329 51.5558H47.1116V53.7771H49.3329V51.5558Z" fill="#5BBCDB"/>
<path d="M49.3329 49.3329H47.1116V51.5558H49.3329V49.3329Z" fill="#5BBCDB"/>
<path d="M49.3329 47.1116H47.1116V49.3329H49.3329V47.1116Z" fill="white"/>
<path d="M49.3329 44.8887H47.1116V47.1116H49.3329V44.8887Z" fill="#2B6991"/>
<path d="M49.3329 42.6673H47.1116V44.8887H49.3329V42.6673Z" fill="#5BBCDB"/>
<path d="M49.3329 40.4445H47.1116V42.6673H49.3329V40.4445Z" fill="#1E93D0"/>
<path d="M49.3329 38.2216H47.1116V40.4445H49.3329V38.2216Z" fill="white"/>
<path d="M49.3329 22.666H47.1116V24.8889H49.3329V22.666Z" fill="#58595B"/>
<path d="M49.3329 18.2218H47.1116V20.4447H49.3329V18.2218Z" fill="#58595B"/>
<path d="M49.3329 16.0005H47.1116V18.2218H49.3329V16.0005Z" fill="#58595B"/>
<path d="M49.3329 13.7776H47.1116V16.0005H49.3329V13.7776Z" fill="black"/>
<path d="M49.3329 11.5562H47.1116V13.7776H49.3329V11.5562Z" fill="#D1D3D4"/>
<path d="M47.1116 84.8882H44.8887V87.1111H47.1116V84.8882Z" fill="black"/>
<path d="M47.1116 82.6669H44.8887V84.8882H47.1116V82.6669Z" fill="black"/>
<path d="M47.1116 80.444H44.8887V82.6669H47.1116V80.444Z" fill="black"/>
<path d="M47.1116 78.2227H44.8887V80.444H47.1116V78.2227Z" fill="#58595B"/>
<path d="M47.1116 69.3327H44.8887V71.5556H47.1116V69.3327Z" fill="#D1D3D4"/>
<path d="M47.1116 62.6671H44.8887V64.8885H47.1116V62.6671Z" fill="#2B6991"/>
<path d="M47.1116 60.4442H44.8887V62.6671H47.1116V60.4442Z" fill="#2B6991"/>
<path d="M47.1116 58.2229H44.8887V60.4442H47.1116V58.2229Z" fill="#2B6991"/>
<path d="M47.1116 56H44.8887V58.2229H47.1116V56Z" fill="#1E93D0"/>
<path d="M47.1116 53.7771H44.8887V56H47.1116V53.7771Z" fill="#1E93D0"/>
<path d="M47.1116 51.5558H44.8887V53.7771H47.1116V51.5558Z" fill="#1E93D0"/>
<path d="M47.1116 49.3329H44.8887V51.5558H47.1116V49.3329Z" fill="#1E93D0"/>
<path d="M47.1116 47.1116H44.8887V49.3329H47.1116V47.1116Z" fill="#1E93D0"/>
<path d="M47.1116 44.8887H44.8887V47.1116H47.1116V44.8887Z" fill="#1E93D0"/>
<path d="M47.1116 42.6673H44.8887V44.8887H47.1116V42.6673Z" fill="#1E93D0"/>
<path d="M47.1116 40.4445H44.8887V42.6673H47.1116V40.4445Z" fill="#1E93D0"/>
<path d="M47.1116 38.2216H44.8887V40.4445H47.1116V38.2216Z" fill="white"/>
<path d="M47.1116 24.8889H44.8887V27.1118H47.1116V24.8889Z" fill="#58595B"/>
<path d="M47.1116 20.4447H44.8887V22.666H47.1116V20.4447Z" fill="#58595B"/>
<path d="M47.1116 16.0005H44.8887V18.2218H47.1116V16.0005Z" fill="#58595B"/>
<path d="M47.1116 13.7776H44.8887V16.0005H47.1116V13.7776Z" fill="black"/>
<path d="M47.1116 11.5562H44.8887V13.7776H47.1116V11.5562Z" fill="#D1D3D4"/>
<path d="M44.8886 87.1111H42.6672V89.334H44.8886V87.1111Z" fill="black"/>
<path d="M44.8886 84.8882H42.6672V87.1111H44.8886V84.8882Z" fill="#58595B"/>
<path d="M44.8886 82.6669H42.6672V84.8882H44.8886V82.6669Z" fill="black"/>
<path d="M44.8886 80.444H42.6672V82.6669H44.8886V80.444Z" fill="black"/>
<path d="M44.8886 78.2227H42.6672V80.444H44.8886V78.2227Z" fill="black"/>
<path d="M44.8886 75.9998H42.6672V78.2227H44.8886V75.9998Z" fill="black"/>
<path d="M44.8886 56H42.6672V58.2229H44.8886V56Z" fill="#2B6991"/>
<path d="M44.8886 53.7771H42.6672V56H44.8886V53.7771Z" fill="#2B6991"/>
<path d="M44.8886 51.5558H42.6672V53.7771H44.8886V51.5558Z" fill="#5BBCDB"/>
<path d="M44.8886 49.3329H42.6672V51.5558H44.8886V49.3329Z" fill="#5BBCDB"/>
<path d="M44.8886 47.1116H42.6672V49.3329H44.8886V47.1116Z" fill="#5BBCDB"/>
<path d="M44.8886 44.8887H42.6672V47.1116H44.8886V44.8887Z" fill="#5BBCDB"/>
<path d="M44.8886 42.6673H42.6672V44.8887H44.8886V42.6673Z" fill="#5BBCDB"/>
<path d="M44.8886 40.4445H42.6672V42.6673H44.8886V40.4445Z" fill="white"/>
<path d="M44.8886 38.2216H42.6672V40.4445H44.8886V38.2216Z" fill="white"/>
<path d="M44.8886 33.7773H42.6672V36.0002H44.8886V33.7773Z" fill="#58595B"/>
<path d="M44.8886 27.1118H42.6672V29.3331H44.8886V27.1118Z" fill="#58595B"/>
<path d="M44.8886 18.2218H42.6672V20.4447H44.8886V18.2218Z" fill="#58595B"/>
<path d="M44.8886 16.0005H42.6672V18.2218H44.8886V16.0005Z" fill="#58595B"/>
<path d="M44.8886 13.7776H42.6672V16.0005H44.8886V13.7776Z" fill="black"/>
<path d="M44.8886 11.5562H42.6672V13.7776H44.8886V11.5562Z" fill="#D1D3D4"/>
<path d="M42.6672 87.1111H40.4443V89.334H42.6672V87.1111Z" fill="#A87720"/>
<path d="M42.6672 80.444H40.4443V82.6669H42.6672V80.444Z" fill="#58595B"/>
<path d="M42.6672 78.2227H40.4443V80.444H42.6672V78.2227Z" fill="black"/>
<path d="M42.6672 75.9998H40.4443V78.2227H42.6672V75.9998Z" fill="black"/>
<path d="M42.6672 73.7785H40.4443V75.9998H42.6672V73.7785Z" fill="black"/>
<path d="M42.6672 51.5558H40.4443V53.7771H42.6672V51.5558Z" fill="white"/>
<path d="M42.6672 49.3329H40.4443V51.5558H42.6672V49.3329Z" fill="white"/>
<path d="M42.6672 47.1116H40.4443V49.3329H42.6672V47.1116Z" fill="white"/>
<path d="M42.6672 44.8887H40.4443V47.1116H42.6672V44.8887Z" fill="white"/>
<path d="M42.6672 42.6673H40.4443V44.8887H42.6672V42.6673Z" fill="white"/>
<path d="M42.6672 40.4445H40.4443V42.6673H42.6672V40.4445Z" fill="white"/>
<path d="M42.6672 24.8889H40.4443V27.1118H42.6672V24.8889Z" fill="#58595B"/>
<path d="M42.6672 20.4447H40.4443V22.666H42.6672V20.4447Z" fill="#58595B"/>
<path d="M42.6672 18.2218H40.4443V20.4447H42.6672V18.2218Z" fill="#58595B"/>
<path d="M42.6672 16.0005H40.4443V18.2218H42.6672V16.0005Z" fill="#58595B"/>
<path d="M42.6672 13.7776H40.4443V16.0005H42.6672V13.7776Z" fill="black"/>
<path d="M42.6672 11.5562H40.4443V13.7776H42.6672V11.5562Z" fill="#D1D3D4"/>
<path d="M40.4443 89.334H38.2214V91.5553H40.4443V89.334Z" fill="black"/>
<path d="M40.4443 87.1111H38.2214V89.334H40.4443V87.1111Z" fill="#A87720"/>
<path d="M40.4443 84.8882H38.2214V87.1111H40.4443V84.8882Z" fill="#FFBF3E"/>
<path d="M40.4443 82.6669H38.2214V84.8882H40.4443V82.6669Z" fill="#FFBF3E"/>
<path d="M40.4443 80.444H38.2214V82.6669H40.4443V80.444Z" fill="black"/>
<path d="M40.4443 78.2227H38.2214V80.444H40.4443V78.2227Z" fill="#58595B"/>
<path d="M40.4443 75.9998H38.2214V78.2227H40.4443V75.9998Z" fill="black"/>
<path d="M40.4443 73.7785H38.2214V75.9998H40.4443V73.7785Z" fill="black"/>
<path d="M40.4443 71.5556H38.2214V73.7784H40.4443V71.5556Z" fill="black"/>
<path d="M40.4443 69.3327H38.2214V71.5556H40.4443V69.3327Z" fill="black"/>
<path d="M40.4443 60.4442H38.2214V62.6671H40.4443V60.4442Z" fill="#D1D3D4"/>
<path d="M40.4443 31.556H38.2214V33.7773H40.4443V31.556Z" fill="#58595B"/>
<path d="M40.4443 16.0005H38.2214V18.2218H40.4443V16.0005Z" fill="#58595B"/>
<path d="M40.4443 13.7776H38.2214V16.0005H40.4443V13.7776Z" fill="black"/>
<path d="M40.4443 11.5562H38.2214V13.7776H40.4443V11.5562Z" fill="#D1D3D4"/>
<path d="M38.2213 89.334H36V91.5553H38.2213V89.334Z" fill="#58595B"/>
<path d="M38.2213 87.1111H36V89.334H38.2213V87.1111Z" fill="#A87720"/>
<path d="M38.2213 84.8882H36V87.1111H38.2213V84.8882Z" fill="#FFBF3E"/>
<path d="M38.2213 82.6669H36V84.8882H38.2213V82.6669Z" fill="black"/>
<path d="M38.2213 80.444H36V82.6669H38.2213V80.444Z" fill="#FFBF3E"/>
<path d="M38.2213 78.2227H36V80.444H38.2213V78.2227Z" fill="#FFBF3E"/>
<path d="M38.2213 75.9998H36V78.2227H38.2213V75.9998Z" fill="#FFBF3E"/>
<path d="M38.2213 73.7785H36V75.9998H38.2213V73.7785Z" fill="black"/>
<path d="M38.2213 71.5556H36V73.7784H38.2213V71.5556Z" fill="black"/>
<path d="M38.2213 69.3327H36V71.5556H38.2213V69.3327Z" fill="black"/>
<path d="M38.2213 67.1113H36V69.3327H38.2213V67.1113Z" fill="black"/>
<path d="M38.2213 64.8885H36V67.1113H38.2213V64.8885Z" fill="black"/>
<path d="M38.2213 42.6673H36V44.8887H38.2213V42.6673Z" fill="#58595B"/>
<path d="M38.2213 36.0002H36V38.2216H38.2213V36.0002Z" fill="#58595B"/>
<path d="M38.2213 24.8889H36V27.1118H38.2213V24.8889Z" fill="#58595B"/>
<path d="M38.2213 20.4447H36V22.666H38.2213V20.4447Z" fill="#58595B"/>
<path d="M38.2213 18.2218H36V20.4447H38.2213V18.2218Z" fill="#58595B"/>
<path d="M38.2213 16.0005H36V18.2218H38.2213V16.0005Z" fill="black"/>
<path d="M38.2213 13.7776H36V16.0005H38.2213V13.7776Z" fill="#D1D3D4"/>
<path d="M36.0002 87.1111H33.7773V89.334H36.0002V87.1111Z" fill="#A87720"/>
<path d="M36.0002 84.8882H33.7773V87.1111H36.0002V84.8882Z" fill="#A87720"/>
<path d="M36.0002 82.6669H33.7773V84.8882H36.0002V82.6669Z" fill="#FFBF3E"/>
<path d="M36.0002 80.444H33.7773V82.6669H36.0002V80.444Z" fill="#FFBF3E"/>
<path d="M36.0002 78.2227H33.7773V80.444H36.0002V78.2227Z" fill="#FFBF3E"/>
<path d="M36.0002 75.9998H33.7773V78.2227H36.0002V75.9998Z" fill="black"/>
<path d="M36.0002 73.7785H33.7773V75.9998H36.0002V73.7785Z" fill="#58595B"/>
<path d="M36.0002 69.3327H33.7773V71.5556H36.0002V69.3327Z" fill="black"/>
<path d="M36.0002 67.1113H33.7773V69.3327H36.0002V67.1113Z" fill="black"/>
<path d="M36.0002 64.8885H33.7773V67.1113H36.0002V64.8885Z" fill="black"/>
<path d="M36.0002 62.6671H33.7773V64.8885H36.0002V62.6671Z" fill="black"/>
<path d="M36.0002 60.4442H33.7773V62.6671H36.0002V60.4442Z" fill="black"/>
<path d="M36.0002 51.5558H33.7773V53.7771H36.0002V51.5558Z" fill="#58595B"/>
<path d="M36.0002 44.8887H33.7773V47.1116H36.0002V44.8887Z" fill="#58595B"/>
<path d="M36.0002 29.3331H33.7773V31.556H36.0002V29.3331Z" fill="#58595B"/>
<path d="M36.0002 22.666H33.7773V24.8889H36.0002V22.666Z" fill="#58595B"/>
<path d="M36.0002 18.2218H33.7773V20.4447H36.0002V18.2218Z" fill="black"/>
<path d="M36.0002 16.0005H33.7773V18.2218H36.0002V16.0005Z" fill="#D1D3D4"/>
<path d="M33.7772 84.8882H31.5559V87.1111H33.7772V84.8882Z" fill="#58595B"/>
<path d="M33.7772 82.6669H31.5559V84.8882H33.7772V82.6669Z" fill="#A87720"/>
<path d="M33.7772 80.444H31.5559V82.6669H33.7772V80.444Z" fill="#A87720"/>
<path d="M33.7772 78.2227H31.5559V80.444H33.7772V78.2227Z" fill="#FFBF3E"/>
<path d="M33.7772 75.9998H31.5559V78.2227H33.7772V75.9998Z" fill="#FFBF3E"/>
<path d="M33.7772 73.7785H31.5559V75.9998H33.7772V73.7785Z" fill="black"/>
<path d="M33.7772 71.5556H31.5559V73.7784H33.7772V71.5556Z" fill="#FFBF3E"/>
<path d="M33.7772 67.1113H31.5559V69.3327H33.7772V67.1113Z" fill="#58595B"/>
<path d="M33.7772 64.8885H31.5559V67.1113H33.7772V64.8885Z" fill="black"/>
<path d="M33.7772 62.6671H31.5559V64.8885H33.7772V62.6671Z" fill="black"/>
<path d="M33.7772 60.4442H31.5559V62.6671H33.7772V60.4442Z" fill="black"/>
<path d="M33.7772 58.2229H31.5559V60.4442H33.7772V58.2229Z" fill="black"/>
<path d="M33.7772 56H31.5559V58.2229H33.7772V56Z" fill="black"/>
<path d="M33.7772 53.7771H31.5559V56H33.7772V53.7771Z" fill="#58595B"/>
<path d="M33.7772 33.7773H31.5559V36.0002H33.7772V33.7773Z" fill="#58595B"/>
<path d="M33.7772 24.8889H31.5559V27.1118H33.7772V24.8889Z" fill="#58595B"/>
<path d="M33.7772 22.666H31.5559V24.8889H33.7772V22.666Z" fill="#58595B"/>
<path d="M33.7772 20.4447H31.5559V22.666H33.7772V20.4447Z" fill="black"/>
<path d="M33.7772 18.2218H31.5559V20.4447H33.7772V18.2218Z" fill="#D1D3D4"/>
<path d="M31.5559 82.6669H29.333V84.8882H31.5559V82.6669Z" fill="black"/>
<path d="M31.5559 80.444H29.333V82.6669H31.5559V80.444Z" fill="#A87720"/>
<path d="M31.5559 78.2227H29.333V80.444H31.5559V78.2227Z" fill="#FFBF3E"/>
<path d="M31.5559 75.9998H29.333V78.2227H31.5559V75.9998Z" fill="#FFBF3E"/>
<path d="M31.5559 73.7785H29.333V75.9998H31.5559V73.7785Z" fill="#FFBF3E"/>
<path d="M31.5559 71.5556H29.333V73.7784H31.5559V71.5556Z" fill="white"/>
<path d="M31.5559 69.3327H29.333V71.5556H31.5559V69.3327Z" fill="#FFBF3E"/>
<path d="M31.5559 62.6671H29.333V64.8885H31.5559V62.6671Z" fill="#58595B"/>
<path d="M31.5559 60.4442H29.333V62.6671H31.5559V60.4442Z" fill="black"/>
<path d="M31.5559 58.2229H29.333V60.4442H31.5559V58.2229Z" fill="black"/>
<path d="M31.5559 56H29.333V58.2229H31.5559V56Z" fill="black"/>
<path d="M31.5559 53.7771H29.333V56H31.5559V53.7771Z" fill="black"/>
<path d="M31.5559 51.5558H29.333V53.7771H31.5559V51.5558Z" fill="black"/>
<path d="M31.5559 49.3329H29.333V51.5558H31.5559V49.3329Z" fill="black"/>
<path d="M31.5559 47.1116H29.333V49.3329H31.5559V47.1116Z" fill="black"/>
<path d="M31.5559 44.8887H29.333V47.1116H31.5559V44.8887Z" fill="#58595B"/>
<path d="M31.5559 40.4445H29.333V42.6673H31.5559V40.4445Z" fill="#58595B"/>
<path d="M31.5559 36.0002H29.333V38.2216H31.5559V36.0002Z" fill="#58595B"/>
<path d="M31.5559 31.556H29.333V33.7773H31.5559V31.556Z" fill="#58595B"/>
<path d="M31.5559 29.3331H29.333V31.556H31.5559V29.3331Z" fill="#58595B"/>
<path d="M31.5559 27.1118H29.333V29.3331H31.5559V27.1118Z" fill="#58595B"/>
<path d="M31.5559 24.8889H29.333V27.1118H31.5559V24.8889Z" fill="black"/>
<path d="M31.5559 22.666H29.333V24.8889H31.5559V22.666Z" fill="black"/>
<path d="M31.5559 20.4447H29.333V22.666H31.5559V20.4447Z" fill="#D1D3D4"/>
<path d="M29.3329 82.6669H27.1116V84.8882H29.3329V82.6669Z" fill="#58595B"/>
<path d="M29.3329 80.444H27.1116V82.6669H29.3329V80.444Z" fill="#A87720"/>
<path d="M29.3329 78.2227H27.1116V80.444H29.3329V78.2227Z" fill="#A87720"/>
<path d="M29.3329 75.9998H27.1116V78.2227H29.3329V75.9998Z" fill="#A87720"/>
<path d="M29.3329 73.7785H27.1116V75.9998H29.3329V73.7785Z" fill="#FFBF3E"/>
<path d="M29.3329 71.5556H27.1116V73.7784H29.3329V71.5556Z" fill="#FFBF3E"/>
<path d="M29.3329 69.3327H27.1116V71.5556H29.3329V69.3327Z" fill="white"/>
<path d="M29.3329 67.1113H27.1116V69.3327H29.3329V67.1113Z" fill="#FFBF3E"/>
<path d="M29.3329 64.8885H27.1116V67.1113H29.3329V64.8885Z" fill="white"/>
<path d="M29.3329 62.6671H27.1116V64.8885H29.3329V62.6671Z" fill="black"/>
<path d="M29.3329 56H27.1116V58.2229H29.3329V56Z" fill="#58595B"/>
<path d="M29.3329 53.7771H27.1116V56H29.3329V53.7771Z" fill="black"/>
<path d="M29.3329 51.5558H27.1116V53.7771H29.3329V51.5558Z" fill="black"/>
<path d="M29.3329 49.3329H27.1116V51.5558H29.3329V49.3329Z" fill="#58595B"/>
<path d="M29.3329 47.1116H27.1116V49.3329H29.3329V47.1116Z" fill="#58595B"/>
<path d="M29.3329 44.8887H27.1116V47.1116H29.3329V44.8887Z" fill="black"/>
<path d="M29.3329 42.6673H27.1116V44.8887H29.3329V42.6673Z" fill="black"/>
<path d="M29.3329 40.4445H27.1116V42.6673H29.3329V40.4445Z" fill="black"/>
<path d="M29.3329 38.2216H27.1116V40.4445H29.3329V38.2216Z" fill="black"/>
<path d="M29.3329 36.0002H27.1116V38.2216H29.3329V36.0002Z" fill="black"/>
<path d="M29.3329 33.7773H27.1116V36.0002H29.3329V33.7773Z" fill="black"/>
<path d="M29.3329 31.556H27.1116V33.7773H29.3329V31.556Z" fill="black"/>
<path d="M29.3329 29.3331H27.1116V31.556H29.3329V29.3331Z" fill="black"/>
<path d="M29.3329 27.1118H27.1116V29.3331H29.3329V27.1118Z" fill="black"/>
<path d="M29.3329 24.8889H27.1116V27.1118H29.3329V24.8889Z" fill="#D1D3D4"/>
<path d="M27.1116 78.2227H24.8887V80.444H27.1116V78.2227Z" fill="black"/>
<path d="M27.1116 75.9998H24.8887V78.2227H27.1116V75.9998Z" fill="#58595B"/>
<path d="M27.1116 73.7785H24.8887V75.9998H27.1116V73.7785Z" fill="#A87720"/>
<path d="M27.1116 71.5556H24.8887V73.7784H27.1116V71.5556Z" fill="#FFBF3E"/>
<path d="M27.1116 69.3327H24.8887V71.5556H27.1116V69.3327Z" fill="#FFBF3E"/>
<path d="M27.1116 67.1113H24.8887V69.3327H27.1116V67.1113Z" fill="white"/>
<path d="M27.1116 64.8885H24.8887V67.1113H27.1116V64.8885Z" fill="#FFBF3E"/>
<path d="M27.1116 62.6671H24.8887V64.8885H27.1116V62.6671Z" fill="white"/>
<path d="M27.1116 60.4442H24.8887V62.6671H27.1116V60.4442Z" fill="#FFBF3E"/>
<path d="M27.1116 58.2229H24.8887V60.4442H27.1116V58.2229Z" fill="#FFBF3E"/>
<path d="M27.1116 53.7771H24.8887V56H27.1116V53.7771Z" fill="#A87720"/>
<path d="M27.1116 42.6673H24.8887V44.8887H27.1116V42.6673Z" fill="#58595B"/>
<path d="M27.1116 40.4445H24.8887V42.6673H27.1116V40.4445Z" fill="#58595B"/>
<path d="M27.1116 38.2216H24.8887V40.4445H27.1116V38.2216Z" fill="#58595B"/>
<path d="M27.1116 36.0002H24.8887V38.2216H27.1116V36.0002Z" fill="#58595B"/>
<path d="M27.1116 33.7773H24.8887V36.0002H27.1116V33.7773Z" fill="#58595B"/>
<path d="M27.1116 31.556H24.8887V33.7773H27.1116V31.556Z" fill="#58595B"/>
<path d="M27.1116 29.3331H24.8887V31.556H27.1116V29.3331Z" fill="#58595B"/>
<path d="M24.8889 75.9998H22.666V78.2227H24.8889V75.9998Z" fill="black"/>
<path d="M24.8889 73.7785H22.666V75.9998H24.8889V73.7785Z" fill="#A87720"/>
<path d="M24.8889 71.5556H22.666V73.7784H24.8889V71.5556Z" fill="#A87720"/>
<path d="M24.8889 69.3327H22.666V71.5556H24.8889V69.3327Z" fill="#A87720"/>
<path d="M24.8889 67.1113H22.666V69.3327H24.8889V67.1113Z" fill="#A87720"/>
<path d="M24.8889 64.8885H22.666V67.1113H24.8889V64.8885Z" fill="#FFBF3E"/>
<path d="M24.8889 62.6671H22.666V64.8885H24.8889V62.6671Z" fill="#FFBF3E"/>
<path d="M24.8889 60.4442H22.666V62.6671H24.8889V60.4442Z" fill="#FFBF3E"/>
<path d="M24.8889 58.2229H22.666V60.4442H24.8889V58.2229Z" fill="#FFBF3E"/>
<path d="M24.8889 56H22.666V58.2229H24.8889V56Z" fill="#A87720"/>
<path d="M24.8889 53.7771H22.666V56H24.8889V53.7771Z" fill="#A87720"/>
<path d="M22.6659 69.3327H20.4446V71.5556H22.6659V69.3327Z" fill="black"/>
<path d="M22.6659 67.1113H20.4446V69.3327H22.6659V67.1113Z" fill="#58595B"/>
<path d="M22.6659 64.8885H20.4446V67.1113H22.6659V64.8885Z" fill="#A87720"/>
<path d="M22.6659 62.6671H20.4446V64.8885H22.6659V62.6671Z" fill="#A87720"/>
<path d="M22.6659 60.4442H20.4446V62.6671H22.6659V60.4442Z" fill="#A87720"/>
<path d="M22.6659 58.2229H20.4446V60.4442H22.6659V58.2229Z" fill="#A87720"/>
<path d="M22.6659 56H20.4446V58.2229H22.6659V56Z" fill="#A87720"/>
<path d="M20.4446 64.8885H18.2217V67.1113H20.4446V64.8885Z" fill="#58595B"/>
<path d="M20.4446 62.6671H18.2217V64.8885H20.4446V62.6671Z" fill="#A87720"/>
<path d="M20.4446 60.4442H18.2217V62.6671H20.4446V60.4442Z" fill="#A87720"/>
<path d="M20.4446 58.2229H18.2217V60.4442H20.4446V58.2229Z" fill="#A87720"/>
<path d="M87.1111 87.1111H84.8882V89.334H87.1111V87.1111Z" fill="#808285"/>
<path d="M87.1111 84.8882H84.8882V87.1111H87.1111V84.8882Z" fill="#808285"/>
<path d="M87.1111 64.8885H84.8882V67.1113H87.1111V64.8885Z" fill="#808285"/>
<path d="M87.1111 60.4442H84.8882V62.6671H87.1111V60.4442Z" fill="#808285"/>
<path d="M84.8881 62.6671H82.6667V64.8885H84.8881V62.6671Z" fill="#808285"/>
<path d="M82.6667 64.8885H80.4438V67.1113H82.6667V64.8885Z" fill="#808285"/>
<path d="M82.6667 60.4442H80.4438V62.6671H82.6667V60.4442Z" fill="#808285"/>
<path d="M80.444 62.6671H78.2227V64.8885H80.444V62.6671Z" fill="#808285"/>
<path d="M78.2226 60.4442H75.9998V62.6671H78.2226V60.4442Z" fill="#808285"/>
<path d="M75.9997 62.6671H73.7783V64.8885H75.9997V62.6671Z" fill="#808285"/>
<path d="M42.6672 84.8882H40.4443V87.1111H42.6672V84.8882Z" fill="#808285"/>
<path d="M42.6672 82.6669H40.4443V84.8882H42.6672V82.6669Z" fill="#808285"/>
<path d="M36.0002 71.5556H33.7773V73.7784H36.0002V71.5556Z" fill="#808285"/>
<path d="M33.7772 69.3327H31.5559V71.5556H33.7772V69.3327Z" fill="#808285"/>
<path d="M31.5559 67.1113H29.333V69.3327H31.5559V67.1113Z" fill="#808285"/>
<path d="M31.5559 64.8885H29.333V67.1113H31.5559V64.8885Z" fill="#808285"/>
<path d="M29.3329 60.4442H27.1116V62.6671H29.3329V60.4442Z" fill="#808285"/>
<path d="M29.3329 58.2229H27.1116V60.4442H29.3329V58.2229Z" fill="#808285"/>
<path d="M27.1116 56H24.8887V58.2229H27.1116V56Z" fill="#808285"/>
</g>
<defs>
<linearGradient id="paint0_linear_5312_204977" x1="58.222" y1="3.93296" x2="58.222" y2="54.8885" gradientUnits="userSpaceOnUse">
<stop stop-color="#58595B"/>
<stop offset="1" stop-color="#808285"/>
</linearGradient>
<clipPath id="clip0_5312_204977">
<rect width="112" height="112" fill="white"/>
</clipPath>
</defs>
</svg>
