<svg width="18" height="18" viewBox="0 0 18 18" fill="none" xmlns="http://www.w3.org/2000/svg">
<path d="M2.42914 0.573242H0.285645V2.71683V4.86044V7.00253V9.14613V11.2882V13.4318V15.5739H2.42914H4.57115V13.4318H6.71464H8.85665V11.2882H11.0001H13.1436V9.14613H15.2856H17.4291V7.00253H15.2856H13.1436V4.86044H11.0001H8.85665V2.71683H6.71464H4.57115V0.573242H2.42914Z" fill="#58595B"/>
<path d="M13.1436 9.14612V11.2882H15.2856H17.4291V9.14612H15.2856H13.1436Z" fill="white"/>
<path d="M8.85693 11.2882V13.4318H11.0004H13.1439V11.2882H11.0004H8.85693Z" fill="white"/>
<path d="M4.57129 13.4318V15.5739H6.71479H8.85679V13.4318H6.71479H4.57129Z" fill="white"/>
<path d="M0.285645 15.5739V17.7175H2.42914H4.57115V15.5739H2.42914H0.285645Z" fill="white"/>
</svg>
