<svg width="18" height="18" viewBox="0 0 18 18" fill="none" xmlns="http://www.w3.org/2000/svg">
<path d="M13.5712 15.5739H15.7147V13.4318V11.2882V9.14613V7.00253V4.86044V2.71683V0.573242H13.5712H11.4292H9.28564V2.71683V4.86044V7.00253V9.14613V11.2882V13.4318V15.5739H11.4292H13.5712Z" fill="#58595B"/>
<path d="M5.00034 15.5739H7.14384V13.4318V11.2882V9.14613V7.00253V4.86044V2.71683V0.573242H5.00034H2.85683H0.714844V2.71683V4.86044V7.00253V9.14613V11.2882V13.4318V15.5739H2.85683H5.00034Z" fill="#58595B"/>
<path d="M15.7145 4.86046V7.00255V9.14615V11.2882V13.4318V15.5739H13.571H11.4289H9.28544V13.4318V11.2882V9.14615V7.00255V4.86046V2.71686H7.14346V4.86046V7.00255V9.14615V11.2882V13.4318V15.5739H4.99995H2.85645V17.7175H4.99995H7.14346H9.28544H11.4289H13.571H15.7145H17.8564V15.5739V13.4318V11.2882V9.14615V7.00255V4.86046V2.71686H15.7145V4.86046Z" fill="white"/>
</svg>
