<svg width="5" height="39" viewBox="0 0 5 39" fill="none" xmlns="http://www.w3.org/2000/svg">
<path d="M2.14347 34.2855V32.1434V29.9998V27.8577V25.7141V23.5705V21.4284V19.2849V17.1428V14.9992V12.8571V10.7135V8.56988V6.42778V4.28419V2.14209V0H0.00146484V2.14209V4.28419V6.42778V8.56988V10.7135V12.8571V14.9992V17.1428V19.2849V21.4284V23.5705V25.7141V27.8577V29.9998V32.1434V34.2855V36.4291H2.14347V34.2855Z" fill="#58595B"/>
<path d="M2.14351 38.5712H4.28551V36.4291V34.2855V32.1434V29.9998V27.8577V25.7141V23.5705V21.4284V19.2849V17.1428V14.9992V12.8571V10.7135V8.56988V6.42778V4.28418V2.14209H2.14351V4.28418V6.42778V8.56988V10.7135V12.8571V14.9992V17.1428V19.2849V21.4284V23.5705V25.7141V27.8577V29.9998V32.1434V34.2855V36.4291H2.142H0V38.5712H2.142H2.14351Z" fill="#D1D3D4"/>
</svg>
