<svg width="24" height="35" viewBox="0 0 24 35" fill="none" xmlns="http://www.w3.org/2000/svg">
<path d="M15 2.14209H12.8564V4.28568H15V2.14209Z" fill="#A7A9AC"/>
<path d="M12.8563 25.7156H10.7144V27.8577H12.8563V25.7156Z" fill="#A87720"/>
<path d="M12.8563 4.28564H10.7144V6.42774H12.8563V4.28564Z" fill="#A7A9AC"/>
<path d="M10.7143 23.572H8.5708V25.7156H10.7143V23.572Z" fill="#A87720"/>
<path d="M10.7143 6.4278H8.5708V8.57139H10.7143V6.4278Z" fill="#A7A9AC"/>
<path d="M8.57072 21.4284H6.42871V23.572H8.57072V21.4284Z" fill="#A87720"/>
<path d="M8.57072 8.57135H6.42871V10.7149H8.57072V8.57135Z" fill="#A7A9AC"/>
<path d="M6.42866 10.715H4.28516V12.8571H6.42866V10.715Z" fill="#A7A9AC"/>
<path d="M4.28511 19.2863H2.1416V21.4284H4.28511V19.2863Z" fill="#A7A9AC"/>
<path d="M4.28511 10.715H2.1416V12.8571H4.28511V10.715Z" fill="#A7A9AC"/>
<path d="M2.142 19.2863H0V21.4284H2.142V19.2863Z" fill="#A87720"/>
<path d="M2.142 17.1428H0V19.2864H2.142V17.1428Z" fill="#A87720"/>
<path d="M2.142 15.0007H0V17.1428H2.142V15.0007Z" fill="#A87720"/>
<path d="M2.142 12.8571H0V15.0006H2.142V12.8571Z" fill="#A87720"/>
<path d="M12.8563 17.1428H10.7144V19.2864H12.8563V17.1428Z" fill="#F2E108"/>
<path d="M10.7143 8.57135V10.7149H8.5708V12.857V15.0006V17.1427H10.7143V15.0006H12.8563V12.857V10.7149V8.57135H10.7143Z" fill="#F2E108"/>
<path d="M6.42915 17.1428H4.28564V19.2864H6.42915V17.1428Z" fill="#F2E108"/>
<path d="M2.14209 12.8571V15.0006V17.1427H4.2856V15.0006H6.4291V12.8571H4.2856H2.14209Z" fill="#F2E108"/>
<path d="M12.8563 15.0007H10.7144V17.1428H12.8563V15.0007Z" fill="#FFBF3E"/>
<path d="M8.5708 17.1428V19.2864V21.4284V23.572H10.7143V25.7156H12.8563V23.572V21.4284V19.2864H10.7143V17.1428H8.5708Z" fill="#FFBF3E"/>
<path d="M6.42866 19.2864H4.28516V21.4285H6.42866V19.2864Z" fill="#FFBF3E"/>
<path d="M6.42866 15.0007H4.28516V17.1428H6.42866V15.0007Z" fill="#FFBF3E"/>
<path d="M4.28511 17.1428H2.1416V19.2864H4.28511V17.1428Z" fill="#FFBF3E"/>
<path d="M15 17.1428V19.2864H17.142H19.2855V17.1428H17.142H15Z" fill="#808285"/>
<path d="M6.42871 15.0006V17.1427V19.2863V21.4284H8.57072V19.2863V17.1427V15.0006V12.8571H6.42871V15.0006Z" fill="#808285"/>
<path d="M19.2851 15.0007H17.1416V17.1428H19.2851V15.0007Z" fill="black"/>
<path d="M19.2855 2.1421V0H17.142H15V2.1421H17.142V4.28569H19.2855V2.1421Z" fill="black"/>
<path d="M15 32.1434V34.287H17.142H19.2855V32.1434V30.0013H17.142V32.1434H15Z" fill="black"/>
<path d="M17.142 27.8577H15V30.0013H17.142V27.8577Z" fill="black"/>
<path d="M17.142 4.28571H15V6.4278H17.142V4.28571Z" fill="black"/>
<path d="M15 30.0013H12.8564V32.1434H15V30.0013Z" fill="black"/>
<path d="M15 23.572V21.4284H17.142V19.2863H15V17.1427V15.0006H17.142V12.857H15V10.7149V8.57135H12.8564V10.7149V12.857V15.0006V17.1427V19.2863V21.4284V23.572V25.7156H15V23.572Z" fill="black"/>
<path d="M12.8563 27.8577H10.7144V30.0013H12.8563V27.8577Z" fill="black"/>
<path d="M10.7143 25.7156H8.5708V27.8577H10.7143V25.7156Z" fill="black"/>
<path d="M8.57072 23.572H6.42871V25.7156H8.57072V23.572Z" fill="black"/>
<path d="M6.42861 23.5721V21.4285H4.28511H2.1416V23.5721H4.28511H6.42861Z" fill="black"/>
<path d="M17.142 6.4278V8.57139H15V10.715V12.8571H17.142V15.0007H19.2855V17.1428V19.2864H17.142V21.4285H15V23.5721V25.7157H17.142V27.8577H19.2855H21.429V25.7157V23.5721V21.4285V19.2864V17.1428V15.0007V12.8571V10.715V8.57139V6.4278H19.2855H17.142Z" fill="white"/>
<path d="M17.142 2.14209H15V4.28568H17.142V2.14209Z" fill="white"/>
<path d="M15 4.28571H12.8564V6.4278H15V4.28571Z" fill="white"/>
<path d="M12.8563 6.4278H10.7144V8.57139H12.8563V6.4278Z" fill="white"/>
<path d="M10.7143 8.57135H8.5708V10.7149H10.7143V8.57135Z" fill="white"/>
<path d="M8.57072 10.715H6.42871V12.8571H8.57072V10.715Z" fill="white"/>
<path d="M21.4291 6.4278V4.28571H19.2856H17.1421V6.4278H19.2856H21.4291Z" fill="#D1D3D4"/>
<path d="M19.2856 30.0013H21.4291V27.8577H19.2856H17.1421V30.0013H19.2856Z" fill="#D1D3D4"/>
<path d="M17.142 27.8577V25.7156H15H12.8564V27.8577H15H17.142Z" fill="#D1D3D4"/>
<path d="M17.142 15.0007H15V17.1428H17.142V15.0007Z" fill="#D1D3D4"/>
<path d="M17.142 8.57139V6.4278H15H12.8564V8.57139H15H17.142Z" fill="#D1D3D4"/>
<path d="M23.5707 27.8578V25.7157V23.5721V21.4285V19.2864V17.1428V15.0007V12.8571V10.715V8.5714V6.4278V4.28571H21.4287V6.4278V8.5714V10.715V12.8571V15.0007V17.1428V19.2864V21.4285V23.5721V25.7157V27.8578V30.0013H23.5707V27.8578Z" fill="#58595B"/>
<path d="M21.4287 30.0013H19.2852V32.1434H21.4287V30.0013Z" fill="#58595B"/>
<path d="M21.4287 2.14209H19.2852V4.28568H21.4287V2.14209Z" fill="#58595B"/>
</svg>
