<svg width="13" height="35" viewBox="0 0 13 35" fill="none" xmlns="http://www.w3.org/2000/svg">
<path d="M8.57262 32.1434H10.7146V30.0013V27.8578V25.7157V23.5721V21.4285V19.2864V17.1428V15.0007V12.8571V10.715V8.5714V6.4278V4.28571H8.57262V6.4278V8.5714V10.715V12.8571V15.0007V17.1428V19.2864V21.4285V23.5721V25.7157V27.8578V30.0013H6.42911H4.28711V32.1434H6.42911H8.57262Z" fill="#58595B"/>
<path d="M6.42911 4.28564H4.28711V6.42774V8.57134V10.7149V12.857V15.0006V17.1427V19.2863V21.4284V23.572V25.7156V27.8577V30.0013H6.42911H8.57262V27.8577V25.7156V23.572V21.4284V19.2863V17.1427V15.0006V12.857V10.7149V8.57134V6.42774V4.28564H6.42911Z" fill="#A7A9AC"/>
<path d="M10.7143 2.14209H8.57227V4.28568H10.7143V2.14209Z" fill="#808285"/>
<path d="M6.42907 2.14209H4.28706H2.14355V4.28568V6.42778V8.57138V10.715V12.8571V15.0007V17.1428V19.2864V21.4284V23.572V25.7156V27.8577V30.0013H4.28706V27.8577V25.7156V23.572V21.4284V19.2864V17.1428V15.0007V12.8571V10.715V8.57138V6.42778V4.28568H6.42907H8.57257V2.14209H6.42907Z" fill="white"/>
<path d="M4.28701 34.287H6.42902H8.57252H10.7145H12.858V32.1434V30.0013V27.8577V25.7156V23.572V21.4284V19.2864V17.1428V15.0007V12.8571V10.715V8.57138V6.42778V4.28568V2.14209H10.7145V4.28568V6.42778V8.57138V10.715V12.8571V15.0007V17.1428V19.2864V21.4284V23.572V25.7156V27.8577V30.0013V32.1434H8.57252H6.42902H4.28701H2.14351H0V34.287H2.14351H4.28701Z" fill="black"/>
<path d="M2.14351 30.0013V27.8577V25.7156V23.572V21.4284V19.2864V17.1428V15.0007V12.8571V10.715V8.57138V6.42779V4.28569V2.14209H4.28701H6.42902H8.57252H10.7145H12.858V0H10.7145H8.57252H6.42902H4.28701H2.14351H0V2.14209V4.28569V6.42779V8.57138V10.715V12.8571V15.0007V17.1428V19.2864V21.4284V23.572V25.7156V27.8577V30.0013V32.1434H2.14351V30.0013Z" fill="#D1D3D4"/>
</svg>
